<?xml version="1.0" standalone="no"?>
<!DOCTYPE svg PUBLIC "-//W3C//DTD SVG 1.1//EN" "http://www.w3.org/Graphics/SVG/1.1/DTD/svg11.dtd" >
<svg xmlns="http://www.w3.org/2000/svg">
<metadata></metadata>
<defs>
<font id="clear_sans_mediumitalic" horiz-adv-x="1171" >
<font-face units-per-em="2048" ascent="1489" descent="-559" />
<missing-glyph horiz-adv-x="543" />
<glyph horiz-adv-x="0" />
<glyph unicode="&#xd;" horiz-adv-x="543" />
<glyph horiz-adv-x="0" />
<glyph horiz-adv-x="0" />
<glyph unicode=" "  horiz-adv-x="543" />
<glyph unicode="&#x09;" horiz-adv-x="543" />
<glyph unicode="&#xa0;" horiz-adv-x="543" />
<glyph unicode="!" horiz-adv-x="557" d="M45 68q0 24 6.5 48.5t16.5 49.5q18 46 53.5 66t97.5 20t90.5 -20.5t28.5 -65.5q0 -29 -8 -59t-19 -50q-21 -38 -57 -54.5t-92 -16.5q-63 0 -90 20.5t-27 61.5zM170 420l174 964h234l-232 -964h-176z" />
<glyph unicode="&#x22;" horiz-adv-x="930" d="M252 803l80 581h237l-166 -581h-151zM641 803l80 581h237l-165 -581h-152z" />
<glyph unicode="#" horiz-adv-x="1325" d="M104 387l37 152h246l78 305h-252l37 153h252l98 387h150l-99 -387h260l99 387h149l-98 -387h244l-37 -153h-246l-74 -305h248l-37 -152h-250l-98 -387h-149l96 387h-258l-97 -387h-151l98 387h-246zM537 539h260l77 305h-260z" />
<glyph unicode="$" horiz-adv-x="1247" d="M106 299l183 113q20 -56 65.5 -99t128.5 -57l80 373q-87 29 -144.5 61.5t-92 71t-48.5 85t-14 103.5q0 61 23 122t75.5 111t137 83t207.5 39l22 106h145l-24 -113q121 -20 199 -79.5t118 -141.5l-172 -110q-29 55 -75 93.5t-109 53.5l-72 -328q84 -28 143 -61t96.5 -73 t55 -88t17.5 -107q0 -87 -32.5 -155.5t-92.5 -117.5t-146 -78t-192 -36l-41 -203h-144l43 205q-69 7 -125 26.5t-98.5 49.5t-72 68.5t-44.5 82.5zM477 971q0 -25 4.5 -44.5t18.5 -36.5t39.5 -31.5t66.5 -29.5l62 291q-53 -5 -89.5 -19t-59 -34t-32.5 -45t-10 -51zM627 254 q99 9 155 52t56 120q0 27 -6 49t-22 41t-43.5 35.5t-70.5 32.5z" />
<glyph unicode="%" horiz-adv-x="2083" d="M170 805q0 30 4 68t12 80t20.5 86t29.5 87q53 136 149.5 206.5t247.5 70.5q84 0 143.5 -20.5t97.5 -59t56 -94t18 -125.5q0 -45 -9 -100t-24 -110t-34.5 -105.5t-40.5 -86.5q-63 -103 -152 -145.5t-209 -42.5q-84 0 -143 21.5t-96 60t-53.5 92t-16.5 117.5zM375 805 q0 -69 29 -102t92 -33q62 0 103.5 29t72.5 92q31 65 51 149t20 168q0 72 -29.5 104.5t-95.5 32.5q-63 0 -107 -35t-75 -112q-28 -66 -44.5 -144t-16.5 -149zM436 -55l1063 1489h199l-1065 -1489h-197zM1192 260q0 30 4 68t12 80t20 86.5t29 87.5q54 135 150.5 205.5 t247.5 70.5q84 0 144.5 -20.5t98.5 -59t56 -94t18 -125.5q0 -45 -9 -100t-24.5 -110t-35.5 -105.5t-41 -85.5q-31 -52 -68.5 -88t-82.5 -58.5t-97 -32.5t-111 -10q-85 0 -144.5 21.5t-96.5 60t-53.5 92t-16.5 117.5zM1399 260q0 -69 29 -102t92 -33q62 0 103.5 29t72.5 92 q31 65 50 149.5t19 167.5q0 72 -28.5 104.5t-94.5 32.5q-63 0 -108 -35t-76 -112q-13 -33 -24 -69.5t-18.5 -74.5t-12 -76t-4.5 -73z" />
<glyph unicode="&#x26;" horiz-adv-x="1294" d="M68 307q0 77 26.5 141.5t76.5 121.5t121.5 109.5t160.5 104.5q-26 46 -42.5 82.5t-27 70t-14.5 67.5t-4 75q0 63 24 122.5t72 106t120 75t167 28.5q163 0 243 -68t80 -188q0 -56 -18.5 -106.5t-60 -100.5t-108 -102t-163.5 -111l184 -329q44 55 83 120.5t77 141.5 l170 -72q-46 -103 -104 -196t-127 -169l131 -231h-238l-55 94q-87 -59 -183 -91t-210 -32q-191 0 -286 87.5t-95 248.5zM281 322q0 -79 48 -123.5t132 -44.5q78 0 151 24t138 74l-209 379q-75 -46 -125 -85t-80 -75t-42.5 -72.5t-12.5 -76.5zM569 1077q0 -35 11 -71t34 -78 l19 -37q67 41 112 74t71 61.5t37 56t11 58.5q0 52 -30.5 78t-98.5 26q-41 0 -72 -14t-52 -37t-31.5 -53.5t-10.5 -63.5z" />
<glyph unicode="'" horiz-adv-x="543" d="M252 803l80 581h237l-166 -581h-151z" />
<glyph unicode="(" horiz-adv-x="809" d="M104 311q0 165 44 330t125 321t195 297.5t255 260.5h238q-142 -116 -262 -256t-207 -295.5t-136 -321.5t-49 -334q0 -210 65.5 -385.5t178.5 -322.5h-232q-55 82 -95.5 162.5t-67 165.5t-39.5 178t-13 200z" />
<glyph unicode=")" horiz-adv-x="809" d="M-135 -395q142 116 262 255.5t207 295t135.5 321.5t48.5 334q0 105 -17 201.5t-48.5 184.5t-77 168.5t-101.5 154.5h232q55 -83 95.5 -163t67 -165t39.5 -178t13 -201q0 -164 -44 -329t-125 -321t-195 -298t-255 -260h-237z" />
<glyph unicode="*" horiz-adv-x="911" d="M170 1008l293 139l-242 147l90 119l228 -158l49 265h141l-63 -265l262 146l63 -125l-299 -141l248 -150l-90 -119l-229 166l-52 -268h-141l66 266l-267 -151z" />
<glyph unicode="+" horiz-adv-x="1427" d="M168 496v174h479v479h174v-479h477v-174h-477v-478h-174v478h-479z" />
<glyph unicode="," horiz-adv-x="557" d="M-14 -293q30 34 56 74.5t46 79.5t34 72.5t19 54.5q-49 2 -71.5 21.5t-22.5 60.5q0 24 5.5 47.5t15.5 48.5q17 43 50.5 67.5t98.5 24.5q63 0 91 -26.5t28 -75.5q0 -26 -6 -56t-16 -61t-22.5 -62t-25.5 -59q-32 -66 -70 -121t-73 -90h-137z" />
<glyph unicode="-" horiz-adv-x="791" d="M68 420l45 213h610l-45 -213h-610z" />
<glyph unicode="." horiz-adv-x="557" d="M47 70q0 24 6 51.5t17 52.5q18 43 53.5 63.5t95.5 20.5q63 0 91 -21.5t28 -66.5q0 -26 -5.5 -54.5t-21.5 -56.5q-21 -40 -57 -56.5t-92 -16.5q-63 0 -89 21.5t-26 62.5z" />
<glyph unicode="/" horiz-adv-x="993" d="M-174 -299l1063 1819h215l-1067 -1819h-211z" />
<glyph unicode="0" horiz-adv-x="1247" d="M106 418q0 57 8 124.5t23 138.5t36 143t46 139q44 117 100 201t127 138.5t159 80.5t196 26q407 0 407 -451q0 -60 -9 -134t-26.5 -153t-41.5 -158t-54 -151q-48 -113 -106.5 -188.5t-128 -121t-151 -64.5t-175.5 -19q-212 0 -311 111t-99 338zM348 412q0 -132 46.5 -187 t140.5 -55q55 0 102 15t87.5 49t75.5 89t66 136q20 51 38.5 112t32.5 126t22 131t8 126q0 70 -12 118.5t-37 78.5t-63 43.5t-89 13.5q-62 0 -110 -19t-87 -57.5t-70 -95.5t-59 -133q-18 -51 -35 -111.5t-29.5 -124.5t-20 -129t-7.5 -126z" />
<glyph unicode="1" horiz-adv-x="1247" d="M350 958l35 160q98 6 167 21t118.5 45.5t86 79t70.5 120.5h170l-292 -1384h-228l203 958h-330z" />
<glyph unicode="2" d="M10 0l45 215q84 61 177.5 131.5t183 141t168.5 137.5t135 123q33 34 64 70.5t55 75t38.5 79t14.5 82.5q0 71 -40.5 111t-131.5 40q-97 0 -170 -44.5t-135 -117.5l-156 142q45 53 95 95t109.5 71.5t130 45t155.5 15.5q93 0 165 -20.5t122 -62.5t76 -106.5t26 -152.5 q0 -57 -18.5 -115t-51 -114t-77 -108.5t-95.5 -100.5t-108 -95t-123 -97.5t-143.5 -106.5t-168.5 -121h643l-45 -213h-940z" />
<glyph unicode="3" d="M10 184l201 127q12 -28 33 -52.5t50.5 -42.5t67.5 -28t84 -10q88 0 148.5 24t98 62t54.5 85t17 93q0 99 -61.5 143t-180.5 44h-110l43 200h94q64 0 122 16.5t102 46.5t70.5 72.5t26.5 94.5q0 71 -44 109t-134 38q-93 0 -165.5 -35.5t-129.5 -103.5l-155 135 q40 48 88 86.5t106.5 66.5t128.5 43t154 15q100 0 174 -22.5t123 -64t72.5 -101.5t23.5 -135q0 -59 -20.5 -113t-62.5 -100.5t-107.5 -83t-155.5 -58.5q51 -8 95.5 -31t77.5 -59.5t52 -87t19 -111.5q0 -98 -36 -184t-109 -151t-183.5 -102.5t-259.5 -37.5q-83 0 -151 15.5 t-119.5 43.5t-87.5 67t-54 87z" />
<glyph unicode="4" horiz-adv-x="1247" d="M6 268l47 219l877 897h225l-194 -915h176l-43 -201h-176l-56 -268h-221l55 268h-690zM285 469h454l127 588z" />
<glyph unicode="5" d="M8 186l201 127q22 -58 82.5 -96.5t154.5 -38.5q82 0 152 23.5t115 68.5q21 21 38 49t29 59t18.5 63t6.5 61q0 94 -50 143t-165 49q-82 0 -152.5 -20.5t-118.5 -52.5h-139l238 763h751l-45 -213h-565l-104 -319q46 19 103.5 31t123.5 12q84 0 152 -21t116 -65.5 t73.5 -112.5t25.5 -161q0 -131 -47.5 -234.5t-124.5 -177.5q-79 -75 -194 -113.5t-261 -38.5q-83 0 -149.5 15.5t-118 43.5t-88 68t-58.5 88z" />
<glyph unicode="6" d="M106 389q0 116 26.5 239t68.5 246q88 269 238.5 404t379.5 135q65 0 118 -8.5t97 -25.5t80 -42t68 -59l-158 -168q-43 51 -92.5 76.5t-124.5 25.5q-76 0 -136 -30.5t-107 -85t-82.5 -130.5t-63.5 -167q146 100 303 100q179 0 268.5 -87.5t89.5 -258.5q0 -72 -15.5 -143.5 t-46 -136t-77.5 -120t-109.5 -96t-141.5 -63.5t-175 -23q-209 0 -308.5 106t-99.5 312zM344 395q0 -112 44.5 -167.5t148.5 -55.5q73 0 130 29.5t96 78t59 111t20 129.5q0 84 -48 131t-139 47q-42 0 -82.5 -7.5t-76.5 -19t-67 -26t-54 -29.5q-13 -57 -22 -113.5t-9 -107.5z " />
<glyph unicode="7" horiz-adv-x="1247" d="M225 0l752 1171h-717l45 213h983l-37 -172l-753 -1212h-273z" />
<glyph unicode="8" d="M49 305q0 67 25 129.5t72 118t115.5 102t154.5 82.5q-45 24 -79.5 51.5t-58 61t-35.5 74.5t-12 92q0 80 32 152t96.5 126.5t163 86.5t231.5 32q413 0 413 -319q0 -111 -83.5 -199.5t-252.5 -161.5q52 -28 93 -58t69.5 -68t44 -85.5t15.5 -109.5q0 -93 -39.5 -173.5 t-113 -140t-178 -93.5t-235.5 -34q-218 0 -328 79.5t-110 254.5zM283 315q0 -72 54.5 -114.5t170.5 -42.5q62 0 118.5 16t99 47.5t68 78t25.5 108.5q0 40 -15 73t-42 61.5t-65 53.5t-85 49q-77 -31 -138 -63.5t-103.5 -71.5t-65 -86.5t-22.5 -108.5zM461 1030 q0 -26 7.5 -50.5t28.5 -49.5t57.5 -51.5t94.5 -55.5q42 16 92.5 38t93.5 53t72 71.5t29 93.5q0 75 -49.5 112.5t-157.5 37.5q-68 0 -118.5 -16.5t-83.5 -44t-49.5 -63.5t-16.5 -75z" />
<glyph unicode="9" d="M63 106l158 166q43 -49 92.5 -74.5t124.5 -25.5q76 0 136 30.5t107 85t83 130.5t63 168q-74 -53 -149.5 -78t-153.5 -25q-179 0 -268.5 87.5t-89.5 260.5q0 108 34.5 212t104.5 186.5t176 133t250 50.5q209 0 308.5 -106.5t99.5 -311.5q0 -117 -27 -240t-68 -245 q-89 -269 -239 -404t-379 -135q-65 0 -118 8.5t-97 25.5t-80.5 42t-67.5 59zM403 862q0 -81 48 -129.5t139 -48.5q42 0 82.5 7.5t76.5 19.5t67 26.5t54 28.5q13 59 22 115.5t9 105.5q0 115 -44.5 170t-147.5 55q-74 0 -131 -29.5t-96 -78t-59 -112t-20 -130.5z" />
<glyph unicode=":" horiz-adv-x="557" d="M47 70q0 24 6 51.5t17 52.5q18 43 53.5 63.5t95.5 20.5q63 0 91 -21.5t28 -66.5q0 -26 -5.5 -54.5t-21.5 -56.5q-21 -40 -57 -56.5t-92 -16.5q-63 0 -89 21.5t-26 62.5zM215 860q0 25 6 52.5t17 52.5q18 43 53.5 63.5t95.5 20.5q63 0 91 -21.5t28 -66.5q0 -26 -5.5 -54.5 t-21.5 -56.5q-21 -40 -57.5 -57t-91.5 -17q-63 0 -89 22t-26 62z" />
<glyph unicode=";" horiz-adv-x="557" d="M-14 -293q30 34 56 74.5t46 79.5t34 72.5t19 54.5q-49 2 -71.5 21.5t-22.5 60.5q0 24 5.5 47.5t15.5 48.5q17 43 50.5 67.5t98.5 24.5q63 0 91 -26.5t28 -75.5q0 -26 -6 -56t-16 -61t-22.5 -62t-25.5 -59q-32 -66 -70 -121t-73 -90h-137zM215 860q0 25 6 52.5t17 52.5 q18 43 53.5 63.5t95.5 20.5q63 0 91 -21.5t28 -66.5q0 -26 -5.5 -54.5t-21.5 -56.5q-21 -40 -57.5 -57t-91.5 -17q-63 0 -89 22t-26 62z" />
<glyph unicode="&#x3c;" horiz-adv-x="1427" d="M168 502v164l1130 471v-191l-882 -362l882 -361v-190z" />
<glyph unicode="=" horiz-adv-x="1427" d="M176 258v174h1131v-174h-1131zM176 735v174h1131v-174h-1131z" />
<glyph unicode="&#x3e;" horiz-adv-x="1427" d="M172 33v190l883 361l-883 362v191l1133 -471v-164z" />
<glyph unicode="?" horiz-adv-x="1038" d="M190 1188q80 109 191 167t268 58q202 0 311 -77.5t109 -235.5q0 -88 -35 -161t-100 -136.5t-158.5 -120t-210.5 -111.5l-39 -178h-217l62 283q117 53 202.5 98t141 90.5t82 95.5t26.5 113q0 68 -45.5 102.5t-142.5 34.5q-95 0 -161 -40t-118 -107zM217 68q0 24 5.5 48.5 t15.5 49.5q18 46 53.5 66t97.5 20q63 0 92 -20.5t29 -65.5q0 -29 -8 -59t-19 -50q-21 -38 -57 -54.5t-92 -16.5q-65 0 -91 20.5t-26 61.5z" />
<glyph unicode="@" horiz-adv-x="1903" d="M86 365q0 129 29.5 257t87.5 244t143 216.5t195.5 173.5t246.5 115t295 42q172 0 309 -42t233 -128t147 -216t51 -306q0 -90 -16.5 -177t-48 -165.5t-77.5 -145t-105 -114.5t-130 -75.5t-152 -27.5q-102 0 -153.5 42.5t-59.5 117.5q-80 -62 -154 -97.5t-157 -35.5 q-81 0 -137 26t-90.5 72t-50 109.5t-15.5 138.5q0 31 6 73.5t17 89t28 94t39 89.5q36 67 81 120t100.5 90t122.5 57t147 20q66 0 119 -22.5t96 -53.5l8 47h191l-152 -710q-6 -32 -6 -52q2 -32 19 -42.5t48 -10.5q41 0 79 20.5t72 57t62.5 87t49 111t32 128.5t11.5 139 q0 127 -33.5 225.5t-103.5 166t-178.5 103t-258.5 35.5q-126 0 -235 -33.5t-199 -94t-160.5 -143.5t-118.5 -182t-73 -209.5t-25 -226.5q0 -120 37.5 -215t109 -160t174 -99.5t232.5 -34.5q61 0 116.5 2t109 7.5t106.5 14t108 21.5v-162q-112 -26 -234 -35.5t-243 -9.5 q-158 0 -286 43t-218 128t-139 211t-49 292zM674 401q0 -47 6.5 -80.5t22 -55.5t40.5 -32t62 -10q44 0 83 9.5t75.5 26.5t71 40t69.5 51l90 424q-48 37 -95.5 55.5t-97.5 18.5q-87 0 -150.5 -41.5t-109.5 -136.5q-16 -35 -28.5 -71.5t-21 -72t-13 -68t-4.5 -57.5z" />
<glyph unicode="A" horiz-adv-x="1286" d="M-66 0l744 1384h299l166 -1384h-232l-37 319h-528l-174 -319h-238zM453 528h399l-70 623z" />
<glyph unicode="B" horiz-adv-x="1260" d="M51 0l293 1384h424q124 0 208 -17.5t135 -52.5t73 -88.5t22 -125.5q0 -61 -18 -115.5t-56 -100t-96 -80t-139 -54.5q57 -8 105 -30t83 -58t54.5 -86t19.5 -113q0 -95 -34 -179.5t-104.5 -147.5t-177.5 -99.5t-253 -36.5h-539zM324 209h223q68 0 133 9.5t116 36.5t82 75.5 t31 126.5q0 51 -17.5 83t-53.5 50t-90 24.5t-127 6.5h-209zM455 825h184q67 0 125 12.5t101 39.5t68 69.5t25 102.5q0 75 -54 103t-167 28h-207z" />
<glyph unicode="C" horiz-adv-x="1282" d="M102 477q0 55 7 120t21 134t36.5 139.5t54.5 137.5q40 83 97.5 156.5t134 129t172.5 87.5t215 32q98 0 174.5 -19t134.5 -53.5t99.5 -84.5t70.5 -111l-203 -121q-21 48 -47.5 82t-62 56.5t-81 33t-104.5 10.5q-68 0 -125.5 -20.5t-104.5 -57t-84 -87t-63 -109.5 q-25 -58 -44 -117.5t-31.5 -117.5t-18.5 -113.5t-6 -104.5q0 -78 19 -135t52.5 -94t80.5 -54.5t104 -17.5q66 0 121 12.5t102.5 37t90 61.5t83.5 86l162 -144q-48 -57 -104 -104.5t-124 -82t-151 -54t-186 -19.5q-249 0 -370.5 127t-121.5 379z" />
<glyph unicode="D" horiz-adv-x="1276" d="M39 0l293 1384h368q135 0 236.5 -23t169.5 -76.5t102.5 -142t34.5 -218.5q0 -52 -6 -115t-18.5 -131t-33 -138.5t-49 -136.5t-66 -125t-85.5 -104q-51 -48 -113 -81.5t-132.5 -54t-149 -29.5t-162.5 -9h-389zM313 213h127q65 0 120.5 5.5t102.5 18t85 33.5t69 52 q42 42 76 112t58 151.5t37 166.5t13 157q0 75 -18 125t-58 80.5t-104 43.5t-157 13h-148z" />
<glyph unicode="E" horiz-adv-x="1128" d="M51 0l293 1384h856l-45 -208h-627l-73 -351h532l-43 -209h-532l-88 -403h626l-43 -213h-856z" />
<glyph unicode="F" horiz-adv-x="1083" d="M51 0l293 1384h848l-45 -213h-619l-75 -352h522l-43 -209h-522l-129 -610h-230z" />
<glyph unicode="G" horiz-adv-x="1374" d="M113 467q0 106 23.5 228t74.5 241q42 96 99 182.5t136.5 152t185 104t242.5 38.5q181 0 297 -65t185 -197l-209 -127q-42 96 -114 139t-175 43q-87 0 -152.5 -25.5t-115.5 -70.5t-87 -106.5t-67 -133.5q-22 -54 -37.5 -109t-25.5 -106.5t-14.5 -98t-4.5 -83.5 q0 -78 15.5 -134t51 -92t92.5 -52.5t140 -16.5q75 0 144 19t141 53l57 264h-297l43 209h527l-127 -604q-118 -68 -241.5 -108t-266.5 -40q-131 0 -228.5 28t-162 88t-97 154t-32.5 226z" />
<glyph unicode="H" horiz-adv-x="1358" d="M51 0l293 1384h229l-118 -561h575l119 561h229l-293 -1384h-229l129 610h-575l-129 -610h-230z" />
<glyph unicode="I" horiz-adv-x="803" d="M-10 0l39 188h186l215 1008h-186l39 188h602l-39 -188h-187l-215 -1008h187l-39 -188h-602z" />
<glyph unicode="J" horiz-adv-x="885" d="M-49 20l90 201q34 -20 83 -32.5t101 -12.5q58 0 98.5 14t69 46.5t48 85.5t36.5 131l197 931h227l-213 -1007q-22 -108 -59 -185t-93.5 -126.5t-135.5 -73t-185 -23.5q-74 0 -143 14t-121 37z" />
<glyph unicode="K" horiz-adv-x="1247" d="M51 0l293 1384h229l-122 -579l608 579h293l-656 -622l400 -762h-273l-297 608l-145 -135l-100 -473h-230z" />
<glyph unicode="L" horiz-adv-x="1018" d="M51 0l293 1384h229l-249 -1171h591l-43 -213h-821z" />
<glyph unicode="M" horiz-adv-x="1597" d="M51 0l293 1384h270l207 -706l510 706h285l-293 -1384h-219l221 1038l-494 -673h-137l-202 673l-220 -1038h-221z" />
<glyph unicode="N" horiz-adv-x="1370" d="M51 0l293 1384h297l311 -1011l215 1011h224l-293 -1384h-258l-336 1087l-230 -1087h-223z" />
<glyph unicode="O" horiz-adv-x="1337" d="M102 465q0 54 5.5 115t18 124t31.5 127.5t46 126.5q40 96 94.5 179t129.5 144.5t172.5 96.5t225.5 35q114 0 203.5 -32t151 -95t93.5 -157.5t32 -219.5q0 -36 -3.5 -80.5t-11.5 -94.5t-20.5 -104.5t-30.5 -109.5q-38 -121 -94 -222t-135 -173.5t-183.5 -113t-238.5 -40.5 q-135 0 -228 36.5t-150.5 101.5t-82.5 156t-25 200zM342 475q0 -81 14.5 -138t46 -92t79.5 -51t116 -16q151 0 249.5 99t158.5 288q29 90 43 180t14 158q0 157 -61 230t-197 73q-71 0 -127.5 -21t-102 -61.5t-82 -98.5t-67.5 -132q-21 -53 -37 -108.5t-26.5 -110 t-15.5 -105.5t-5 -94z" />
<glyph unicode="P" horiz-adv-x="1186" d="M51 0l293 1384h459q95 0 169.5 -17.5t125.5 -56.5t77.5 -102t26.5 -155q0 -74 -12 -147.5t-38.5 -140.5t-70 -124.5t-106 -100t-146.5 -67t-192 -24.5h-262l-94 -449h-230zM420 655h213q98 0 161 31t99.5 82.5t50.5 117.5t14 136q0 40 -10.5 69t-34.5 48.5t-63 29 t-96 9.5h-224z" />
<glyph unicode="Q" horiz-adv-x="1337" d="M102 465q0 54 5.5 115t18 124t31.5 127.5t46 126.5q39 94 94 176.5t130 144.5t173.5 98t224.5 36q114 0 203.5 -32t151 -95t93.5 -157.5t32 -219.5q0 -36 -3.5 -80.5t-11.5 -94.5t-20.5 -104.5t-30.5 -109.5q-31 -98 -77.5 -188.5t-113 -162.5t-154.5 -121.5t-202 -65.5 q3 -32 12 -55t28 -38t49.5 -22.5t76.5 -7.5q19 0 43 2t49 5.5t49.5 8.5t44.5 10l19 -188q-28 -9 -62 -16t-68.5 -11t-67 -6t-56.5 -2q-99 0 -168 22t-112.5 63.5t-64.5 101.5t-24 137q-93 18 -157 60t-104.5 104t-58.5 142t-18 173zM342 475q0 -81 14.5 -138t46 -92 t79.5 -51t116 -16q78 0 141 27.5t113.5 78.5t89 123t66.5 160q29 90 42 177.5t13 158.5q0 157 -61 230t-197 73q-72 0 -130 -23t-104.5 -64.5t-82.5 -99t-64 -126.5q-21 -53 -36.5 -108.5t-25.5 -110t-15 -105.5t-5 -94z" />
<glyph unicode="R" horiz-adv-x="1235" d="M51 0l293 1384h447q109 0 189.5 -16t134 -54.5t80 -102t26.5 -158.5q0 -40 -9.5 -89t-28.5 -99t-47.5 -98t-66.5 -85q-49 -48 -112 -75t-126 -40l248 -567h-258l-225 545h-201l-114 -545h-230zM438 750h215q90 0 148.5 15t95.5 52q20 20 35 46.5t25 56.5t15 60.5t5 57.5 q0 80 -50.5 111t-160.5 31h-236z" />
<glyph unicode="S" horiz-adv-x="1202" d="M14 242l211 123q16 -39 39 -73t59 -59.5t87.5 -40t124.5 -14.5q63 0 119 14.5t98 41t67 63.5t25 82q0 40 -7.5 70t-33.5 56t-77.5 50t-139.5 53q-107 33 -181 67t-119.5 76.5t-66 98.5t-20.5 133q0 79 33 156t100.5 138t170 98.5t240.5 37.5q174 0 286 -64t181 -188 l-204 -129q-36 80 -106.5 127t-186.5 47q-67 0 -117.5 -16t-84.5 -43t-51.5 -63t-17.5 -76q0 -35 10.5 -60.5t39 -47t79 -42t129.5 -45.5q110 -35 184.5 -73.5t120.5 -86t65.5 -106.5t19.5 -135q0 -107 -44.5 -189t-122 -138t-182 -85t-223.5 -29q-111 0 -195 20t-145 55.5 t-101 85.5t-63 110z" />
<glyph unicode="T" horiz-adv-x="1169" d="M174 1171l45 213h1096l-45 -213h-434l-248 -1171h-228l248 1171h-434z" />
<glyph unicode="U" horiz-adv-x="1393" d="M147 358q0 47 8 108.5t23 133.5l166 784h229l-165 -786q-14 -62 -21.5 -119t-7.5 -112q0 -102 58.5 -146.5t176.5 -44.5q84 0 147 19t111 67t82.5 130.5t61.5 209.5l168 782h227l-172 -821q-37 -174 -91.5 -288.5t-131.5 -182.5t-180.5 -95.5t-237.5 -27.5 q-232 0 -341.5 97t-109.5 292z" />
<glyph unicode="V" horiz-adv-x="1208" d="M221 1384h221l97 -1126l571 1126h244l-721 -1384h-285z" />
<glyph unicode="W" horiz-adv-x="1759" d="M236 1384h223l20 -1015l453 1015h239l29 -1015l455 1015h233l-633 -1384h-249l-29 1012l-457 -1012h-246z" />
<glyph unicode="X" horiz-adv-x="1221" d="M-70 0l598 717l-288 667h247l203 -497l406 497h268l-588 -690l295 -694h-248l-211 524l-415 -524h-267z" />
<glyph unicode="Y" horiz-adv-x="1143" d="M211 1384h238l159 -632l428 632h260l-608 -854l-113 -530h-231l111 524z" />
<glyph unicode="Z" horiz-adv-x="1133" d="M-31 0l43 207l860 964h-624l45 213h911l-41 -196l-870 -975h678l-43 -213h-959z" />
<glyph unicode="[" horiz-adv-x="768" d="M-25 -395l400 1884h508l-37 -170h-311l-330 -1544h313l-35 -170h-508z" />
<glyph unicode="\" horiz-adv-x="993" d="M309 1520h201l311 -1819h-198z" />
<glyph unicode="]" horiz-adv-x="768" d="M-102 -395l34 170h312l327 1544h-313l37 170h508l-400 -1884h-505z" />
<glyph unicode="^" horiz-adv-x="1157" d="M156 649l538 735h152l225 -735h-160l-172 555l-407 -555h-176z" />
<glyph unicode="_" horiz-adv-x="1024" d="M-180 -256l22 102h1053l-23 -102h-1052z" />
<glyph unicode="`" horiz-adv-x="1042" d="M446 1569h259l116 -361h-155z" />
<glyph unicode="a" d="M78 342q0 74 14.5 157.5t44 165.5t74 157t105 132t136.5 91t169 34q94 0 162 -29t116 -83l19 82h208l-219 -1049h-190l16 127q-45 -38 -86 -67t-82 -49.5t-83.5 -31t-90.5 -10.5q-158 0 -235.5 91.5t-77.5 281.5zM301 358q0 -105 36 -151.5t114 -46.5q42 0 83.5 12 t81.5 32t76 45.5t68 51.5l102 483q-42 47 -97.5 76t-129.5 29q-57 0 -104 -25t-84 -66.5t-64.5 -95.5t-45.5 -113t-27 -119t-9 -112z" />
<glyph unicode="b" d="M43 0l315 1489h211l-112 -535q71 56 151.5 90.5t163.5 34.5q164 0 244 -91.5t80 -282.5q0 -66 -12 -138.5t-35 -144.5t-56.5 -140t-77.5 -126q-69 -91 -164 -139t-216 -48q-90 0 -156.5 32.5t-116.5 88.5l-35 -90h-184zM309 262q42 -45 97 -73.5t124 -28.5 q59 0 116.5 30.5t105.5 98.5q27 38 48.5 85.5t37 99.5t24 106.5t8.5 107.5q0 106 -37.5 153.5t-121.5 47.5q-39 0 -78 -9.5t-76.5 -26t-72 -38t-64.5 -45.5z" />
<glyph unicode="c" horiz-adv-x="1024" d="M78 377q0 63 13 139.5t42 154.5t75 151.5t111 130.5t150.5 91.5t194.5 34.5q139 0 227.5 -47t136.5 -141l-182 -109q-26 56 -72 82.5t-125 26.5q-62 0 -112 -25t-89 -66t-67 -94.5t-46.5 -111.5t-27 -116t-8.5 -107t9.5 -89t32 -68t60.5 -43t95 -15q74 0 133.5 32 t113.5 91l144 -123q-72 -85 -176 -136t-238 -51q-106 0 -181 27.5t-122.5 80t-69.5 128t-22 172.5z" />
<glyph unicode="d" d="M76 342q0 66 11.5 138t34.5 144t56.5 140t77.5 127q69 91 164 139.5t217 48.5q81 0 147.5 -29t114.5 -83l111 522h211l-314 -1489h-200l20 102q-75 -58 -156.5 -95.5t-171.5 -37.5q-164 0 -243.5 91.5t-79.5 281.5zM301 358q0 -105 37.5 -151.5t122.5 -46.5 q38 0 77.5 9.5t77.5 26t73 38t65 45.5l108 505q-42 47 -97 76t-124 29q-59 0 -116 -30.5t-105 -98.5q-27 -39 -49 -86.5t-37.5 -100t-24 -107.5t-8.5 -108z" />
<glyph unicode="e" horiz-adv-x="1090" d="M76 354q0 64 10 130.5t30.5 132.5t50.5 129t69 120q33 48 75.5 87.5t95 67.5t116.5 43t139 15q93 0 162 -24t114.5 -68.5t67.5 -108.5t22 -145q0 -11 -1 -27.5t-3 -36t-4.5 -39.5t-5.5 -36l-25 -115h-678q-8 -34 -11 -65.5t-3 -59.5q0 -109 51 -153.5t156 -44.5 q80 0 144.5 30.5t121.5 87.5l125 -131q-38 -41 -80 -73.5t-91.5 -55t-109 -34t-131.5 -11.5q-105 0 -181.5 27t-127 77t-74.5 121t-24 160zM346 637h465q5 26 7.5 50.5t2.5 45.5q0 85 -40.5 128.5t-135.5 43.5q-71 0 -122 -24t-89 -72q-26 -32 -48.5 -76.5t-39.5 -95.5z" />
<glyph unicode="f" horiz-adv-x="633" d="M68 0l184 874h-139l37 175h139l22 102q20 91 50.5 160.5t78 115.5t115.5 69.5t164 23.5q59 0 109.5 -11.5t91.5 -29.5l-78 -183q-29 16 -62 25.5t-71 9.5q-39 0 -69 -9t-52.5 -29t-38 -52.5t-25.5 -79.5l-24 -112h219l-37 -175h-219l-184 -874h-211z" />
<glyph unicode="g" d="M-33 -301l101 170q62 -37 135.5 -58.5t163.5 -21.5q78 0 134.5 12t96 40t64 74.5t38.5 115.5l21 94q-35 -27 -73.5 -50t-78 -39.5t-80 -26t-77.5 -9.5q-89 0 -152 25.5t-103 74.5t-58.5 121t-18.5 166q0 79 16.5 161.5t48.5 159.5t80 144.5t111 118t140 79.5t169 29 q35 0 72 -9t72 -25t66 -38.5t54 -50.5l37 93h180l-219 -1043q-23 -107 -63 -183t-105.5 -124.5t-159 -71t-223.5 -22.5q-128 0 -227.5 25.5t-161.5 68.5zM305 391q0 -107 35.5 -154t124.5 -47q75 0 149 32t146 87l100 475q-45 51 -99.5 78t-123.5 27q-56 0 -102 -23.5 t-83 -62.5t-64.5 -90t-46 -106.5t-27.5 -111t-9 -104.5z" />
<glyph unicode="h" horiz-adv-x="1165" d="M43 0l315 1489h211l-125 -586q42 37 87 69t92.5 56t97 37.5t100.5 13.5q69 0 116.5 -19.5t76 -52.5t41 -77.5t12.5 -95.5q0 -42 -7 -93t-18 -102l-135 -639h-209l127 598q11 56 18 100.5t7 87.5q0 50 -23 75.5t-77 25.5q-37 0 -79 -12.5t-86.5 -35t-89 -53t-87.5 -65.5 l-154 -721h-211z" />
<glyph unicode="i" horiz-adv-x="520" d="M43 0l221 1049h211l-221 -1049h-211zM295 1288q0 28 7.5 56t25 49.5t46.5 35t72 13.5q59 0 84 -22.5t25 -59.5q0 -28 -7.5 -55t-25 -48.5t-46 -35t-70.5 -13.5q-65 0 -88 21.5t-23 58.5z" />
<glyph unicode="j" horiz-adv-x="539" d="M-336 -365l86 183q32 -14 67 -21.5t77 -7.5q38 0 64 13t44.5 40t31 68t23.5 96l222 1043h213l-232 -1094q-19 -91 -50.5 -157t-79.5 -109t-114.5 -63.5t-156.5 -20.5q-18 0 -42 2t-50 5.5t-53 9t-50 13.5zM315 1290q0 28 8 55t26 48.5t47 35t71 13.5q59 0 83.5 -23 t24.5 -61q0 -29 -8 -56t-25.5 -48t-46 -33.5t-69.5 -12.5q-32 0 -53.5 5.5t-34.5 16t-18 26t-5 34.5z" />
<glyph unicode="k" horiz-adv-x="1053" d="M43 0l315 1489h211l-184 -875l457 435h264l-488 -455l289 -594h-235l-211 459l-135 -123l-72 -336h-211z" />
<glyph unicode="l" horiz-adv-x="528" d="M47 0l315 1489h211l-315 -1489h-211z" />
<glyph unicode="m" horiz-adv-x="1716" d="M43 0l221 1049h211l-31 -146q42 40 86.5 72.5t88 55.5t86 35.5t81.5 12.5q121 0 177.5 -51.5t58.5 -144.5q105 93 194 144.5t170 51.5q69 0 115 -17.5t73.5 -48.5t38.5 -73.5t11 -91.5q0 -37 -5.5 -79.5t-16.5 -90.5l-144 -678h-211l131 618q13 57 20 99.5t7 73.5 q0 96 -90 96q-35 0 -73.5 -14t-78 -37.5t-78.5 -53.5t-75 -61l-154 -721h-211l131 618q13 59 19 101t6 65q0 51 -19.5 77t-72.5 26q-35 0 -74 -15.5t-79 -39.5t-78 -53.5t-70 -57.5l-154 -721h-211z" />
<glyph unicode="n" horiz-adv-x="1165" d="M43 0l221 1049h211l-31 -146q42 37 87 69t92 56t96 37.5t100 13.5q70 0 117.5 -19.5t76.5 -52.5t41.5 -77.5t12.5 -95.5q0 -42 -7 -93t-18 -102l-135 -639h-209l127 598q11 56 18 101t7 92q0 46 -24.5 71t-73.5 25q-39 0 -82 -12.5t-87 -35t-88 -53t-87 -65.5l-154 -721 h-211z" />
<glyph unicode="o" horiz-adv-x="1149" d="M80 379q0 54 10 122t32.5 139.5t59 142t90.5 128.5q71 77 168 122.5t232 45.5q93 0 166.5 -26t125 -78t78.5 -131t27 -185q0 -55 -11 -125t-36 -144t-65.5 -145.5t-98.5 -129.5q-37 -37 -77.5 -64.5t-86.5 -45.5t-99.5 -27t-115.5 -9q-109 0 -185 27.5t-123.5 80 t-69 128.5t-21.5 174zM299 373q0 -55 10.5 -95.5t34 -67.5t61.5 -40.5t93 -13.5q68 0 121.5 28t95.5 76q31 36 56.5 85t42.5 102.5t26.5 108t9.5 101.5q0 234 -201 234q-72 0 -128.5 -32.5t-98.5 -86.5q-29 -37 -51.5 -85t-38.5 -101.5t-24.5 -108t-8.5 -104.5z" />
<glyph unicode="p" d="M-39 -395l303 1444h201l-21 -105q76 60 157 97.5t171 37.5q164 0 244 -91.5t80 -282.5q0 -66 -13 -146t-40.5 -161.5t-71 -159t-105 -137t-142 -96t-181.5 -36.5q-88 0 -155.5 29.5t-115.5 83.5l-102 -477h-209zM309 262q42 -45 97 -73.5t124 -28.5q57 0 104.5 24.5 t85 66t66 95.5t47 113t28 118t9.5 111q0 106 -37.5 153.5t-121.5 47.5q-39 0 -78 -9.5t-77 -26t-73 -38t-65 -45.5z" />
<glyph unicode="q" d="M76 352q0 69 14 149.5t43 161t72.5 156t103.5 133t136 92.5t169 35q99 0 171 -30.5t124 -92.5l37 93h182l-305 -1444h-211l101 489q-81 -62 -155.5 -93.5t-158.5 -31.5q-163 0 -243 93t-80 290zM301 358q0 -105 37.5 -151.5t122.5 -46.5q38 0 77.5 9.5t77.5 26t73 38 t65 45.5l108 505q-42 47 -97.5 76t-127.5 29q-63 0 -112.5 -27t-86.5 -71.5t-63.5 -101t-42.5 -115.5t-23.5 -115.5t-7.5 -100.5z" />
<glyph unicode="r" horiz-adv-x="809" d="M43 0l221 1049h211l-33 -160q94 88 172.5 132t153.5 44q38 0 72 -6.5t53 -16.5l-84 -206q-14 6 -38 12t-50 6q-44 0 -84.5 -12t-79.5 -32.5t-77 -48.5t-77 -59l-149 -702h-211z" />
<glyph unicode="s" horiz-adv-x="987" d="M6 154l182 108q31 -60 84.5 -87.5t135.5 -27.5q49 0 92 8.5t74.5 26.5t50 44.5t18.5 62.5q0 23 -6 42t-27 36.5t-60.5 35t-105.5 37.5q-85 25 -141.5 54t-90 63.5t-47 77t-13.5 96.5q0 71 28 134t82.5 110.5t135.5 75.5t186 28q144 0 233 -47t141 -135l-180 -111 q-10 22 -27.5 42.5t-43.5 36.5t-62 26t-82 10q-48 0 -85 -11.5t-62 -30.5t-38 -43.5t-13 -49.5q0 -22 6 -41.5t24 -36.5t50 -32.5t83 -30.5q94 -26 157.5 -55t102 -65t54.5 -82t16 -106q0 -73 -30 -136.5t-88.5 -110.5t-145 -74t-199.5 -27q-87 0 -151.5 14t-111 38.5 t-77 58.5t-49.5 74z" />
<glyph unicode="t" horiz-adv-x="719" d="M113 874l37 175h137l63 292h211l-63 -292h250l-35 -175h-252l-111 -524q-8 -32 -12 -59.5t-4 -48.5q0 -51 23.5 -73t68.5 -22q35 0 78.5 7.5t77.5 19.5v-174q-48 -15 -102 -23t-99 -8q-70 0 -119 16.5t-80.5 47t-46 73t-14.5 95.5q0 31 4 68t12 75l113 530h-137z" />
<glyph unicode="u" horiz-adv-x="1165" d="M98 213q0 42 7 93t18 102l135 641h209l-125 -598q-12 -56 -19.5 -101t-7.5 -80q0 -60 24.5 -84t74.5 -24q39 0 81.5 12.5t86.5 34.5t88.5 52.5t87.5 66.5l153 721h211l-221 -1049h-211l31 145q-42 -38 -87 -70t-91.5 -55.5t-94.5 -37t-96 -13.5q-72 0 -120.5 19.5 t-78.5 52.5t-42.5 77.5t-12.5 94.5z" />
<glyph unicode="v" horiz-adv-x="1004" d="M150 1049h208l91 -762l399 762h227l-586 -1049h-200z" />
<glyph unicode="w" horiz-adv-x="1489" d="M154 1049h208l13 -738l391 738h166l88 -736l315 736h219l-483 -1049h-197l-83 735l-398 -735h-192z" />
<glyph unicode="x" horiz-adv-x="1024" d="M-68 0l459 541l-233 508h231l154 -357l293 357h256l-461 -531l241 -518h-235l-158 367l-291 -367h-256z" />
<glyph unicode="y" horiz-adv-x="1040" d="M-195 -362l76 178q31 -14 65 -20.5t66 -6.5q33 0 63 11t60 35.5t62 65.5t69 101l45 76l-164 971h211l111 -730l418 730h229l-680 -1125q-51 -86 -98 -146.5t-97.5 -99t-110 -56t-136.5 -17.5q-47 0 -97 9.5t-92 23.5z" />
<glyph unicode="z" horiz-adv-x="913" d="M-43 0l33 160l649 714h-485l36 175h750l-33 -156l-651 -719h514l-37 -174h-776z" />
<glyph unicode="{" horiz-adv-x="926" d="M88 471l41 184h29q70 0 123 20.5t91.5 61.5t64.5 102.5t44 143.5l29 143q21 97 57 170.5t90.5 123t129.5 75t174 25.5h96l-35 -170h-55q-114 0 -176.5 -58t-88.5 -182l-36 -168q-19 -87 -46.5 -153t-68 -112.5t-96 -75.5t-129.5 -44q91 -32 140.5 -99t49.5 -161 q0 -29 -4 -61t-10 -60l-33 -164q-5 -24 -9.5 -49t-4.5 -59q0 -66 42.5 -97.5t127.5 -31.5h61l-35 -170h-67q-164 0 -246 68.5t-82 201.5q0 35 5 68t11 65l29 133q6 32 12 67t6 77q0 41 -11.5 75.5t-36.5 59t-63 38t-91 13.5h-29z" />
<glyph unicode="|" horiz-adv-x="825" d="M358 -395v1915h197v-1915h-197z" />
<glyph unicode="}" horiz-adv-x="926" d="M-119 -395l35 170h55q114 0 176.5 56t88.5 181l36 170q19 87 46.5 152t68 111.5t96 75.5t129.5 44q-91 34 -140.5 100t-49.5 162q0 28 4 60.5t10 60.5l33 162q5 26 9.5 51.5t4.5 57.5q0 68 -42.5 99.5t-127.5 31.5h-61l35 170h67q164 0 246 -70t82 -203q0 -34 -5 -66.5 t-11 -66.5l-29 -133q-6 -32 -12.5 -66.5t-6.5 -76.5q0 -41 12 -75t36.5 -58.5t63 -38t91.5 -13.5h29l-41 -184h-29q-71 0 -123.5 -20.5t-91 -61.5t-64.5 -103t-44 -145l-29 -141q-21 -97 -57 -170.5t-90.5 -123t-129.5 -74.5t-174 -25h-96z" />
<glyph unicode="~" horiz-adv-x="1378" d="M166 596l41 195q50 38 94.5 62.5t83 38t71 18.5t58.5 5q72 0 134 -24.5t119 -54t109.5 -54t104.5 -24.5q74 0 156 38t172 107l-41 -190q-32 -24 -68 -47t-75.5 -41.5t-80.5 -29.5t-81 -11q-70 0 -134 24.5t-122.5 54t-110.5 54t-98 24.5q-88 0 -167.5 -38.5 t-164.5 -106.5z" />
<glyph unicode="&#xa2;" horiz-adv-x="1034" d="M78 377q0 63 13 140t42 155t75 151.5t111.5 130t152 91t196.5 34.5l71 209h142l-76 -225q78 -20 133.5 -62t89.5 -110l-182 -109q-17 35 -42 58.5t-63 36.5l-243 -721q80 5 137 36t108 87l144 -123q-72 -85 -176 -136t-238 -51h-37l-78 -229h-141l84 254 q-119 38 -171 136t-52 247zM299 371q0 -65 14.5 -112.5t53.5 -72.5l235 699q-53 -9 -96.5 -37.5t-77 -70t-58 -93t-40.5 -105.5t-23.5 -108t-7.5 -100z" />
<glyph unicode="&#xa3;" horiz-adv-x="1247" d="M39 0l39 193q40 9 72.5 31.5t58.5 54t45.5 69.5t33.5 77t23.5 76.5t14.5 69.5h-146l35 168h125q3 25 2.5 55t-0.5 80q0 127 37 227t104 168t161 104t208 36q78 0 139.5 -14.5t110 -43.5t86 -72.5t67.5 -100.5l-194 -113q-23 69 -82.5 110.5t-149.5 41.5q-65 0 -116 -23 t-85.5 -65t-52.5 -100t-18 -128q0 -40 -1 -80t-1 -82h352l-35 -168h-329q-11 -51 -27 -101t-40 -97.5t-57.5 -90t-78.5 -77.5h723l-41 -205h-983z" />
<glyph unicode="&#xa5;" horiz-adv-x="1247" d="M131 373l31 151h346l12 60l-20 67h-310l31 152h232q-9 25 -23.5 71t-32 102t-37 117.5t-37 117.5t-32 101.5t-23.5 71.5h226l172 -583l417 583h246l-434 -581h233l-32 -152h-312l-45 -61q-3 -14 -8 -33t-8 -33h346l-31 -151h-344q-3 -15 -9 -44.5t-14 -66t-16.5 -76.5 t-16.5 -76t-14.5 -65.5t-9.5 -44.5h-217l80 373h-346z" />
<glyph unicode="&#xa8;" horiz-adv-x="1042" d="M356 1266q0 14 4.5 39t14.5 47q15 38 46 55.5t85 17.5q57 0 80.5 -19.5t23.5 -57.5q0 -20 -5.5 -46t-16.5 -45q-19 -37 -49.5 -51t-81.5 -14q-59 0 -80 19.5t-21 54.5zM762 1266q0 14 4.5 39t13.5 47q17 38 48 55.5t85 17.5q57 0 80 -19.5t23 -57.5q0 -20 -5.5 -46 t-15.5 -45q-20 -37 -50.5 -51t-80.5 -14q-59 0 -80.5 19.5t-21.5 54.5z" />
<glyph unicode="&#xa9;" horiz-adv-x="1829" d="M121 610q0 113 28.5 216t80.5 192t125 161.5t162 124t192 79.5t215 28t215.5 -28.5t192.5 -80.5t161.5 -125t124.5 -162t80 -191.5t28 -213.5q0 -113 -28.5 -217t-80.5 -194t-125 -163t-162 -125t-192 -80t-214 -28q-113 0 -216.5 28.5t-193 81t-162 126t-124 163 t-79.5 193t-28 215.5zM272 610q0 -137 51 -257t139 -210t207 -142t255 -52q91 0 175 23.5t156.5 67t131.5 103.5t101.5 133.5t65.5 158t23 175.5q0 90 -23 174t-65.5 156.5t-101.5 132.5t-131.5 103t-156.5 66.5t-175 23.5t-174.5 -23.5t-156 -66.5t-131.5 -103 t-101.5 -132.5t-65.5 -156.5t-23 -174zM541 612q0 218 98 331.5t305 113.5q64 0 114.5 -13.5t91 -38t71.5 -59.5t57 -78l-152 -88q-15 25 -31 46.5t-37.5 37.5t-49.5 25.5t-66 9.5q-59 0 -101 -17t-68 -52.5t-38 -89.5t-12 -128q0 -76 13 -130t40 -88.5t69 -51t99 -16.5 q36 0 64.5 9t51.5 25t42 38t37 48l153 -86q-28 -40 -59.5 -75t-72 -61t-92.5 -41t-120 -15q-209 0 -308 113t-99 331z" />
<glyph unicode="&#xab;" horiz-adv-x="1303" d="M63 524l496 471h250l-502 -481l297 -461h-239zM584 524l495 471h250l-502 -481l297 -461h-239z" />
<glyph unicode="&#xad;" horiz-adv-x="791" d="M68 420l45 213h610l-45 -213h-610z" />
<glyph unicode="&#xae;" horiz-adv-x="1829" d="M121 610q0 113 28.5 216t80.5 192t125 161.5t162 124t192 79.5t215 28t215.5 -28.5t192.5 -80.5t161.5 -125t124.5 -162t80 -191.5t28 -213.5q0 -113 -28.5 -217t-80.5 -194t-125 -163t-162 -125t-192 -80t-214 -28q-113 0 -216.5 28.5t-193 81t-162 126t-124 163 t-79.5 193t-28 215.5zM272 610q0 -137 51 -257t139 -210t207 -142t255 -52q91 0 175 23.5t156.5 67t131.5 103.5t101.5 133.5t65.5 158t23 175.5q0 90 -23 174t-65.5 156.5t-101.5 132.5t-131.5 103t-156.5 66.5t-175 23.5t-174.5 -23.5t-156 -66.5t-131.5 -103 t-101.5 -132.5t-65.5 -156.5t-23 -174zM625 199v852h290q75 0 136 -12t103.5 -41.5t65.5 -78.5t23 -122q0 -105 -40.5 -163.5t-112.5 -84.5l235 -350h-211l-215 321h-98v-321h-176zM801 670h108q48 0 77.5 6.5t46 20.5t22.5 36.5t6 54.5q0 30 -6.5 51t-22.5 34.5t-43.5 19.5 t-70.5 6h-117v-229z" />
<glyph unicode="&#xb4;" horiz-adv-x="1042" d="M551 1208l242 361h284l-344 -361h-182z" />
<glyph unicode="&#xb8;" horiz-adv-x="1042" d="M35 -344l80 117q38 -19 83.5 -29t86.5 -10q24 0 48 3.5t43 12.5t30.5 23.5t11.5 36.5q0 30 -35.5 52t-120.5 25l100 142h127l-40 -56q57 -17 93 -55.5t36 -101.5q0 -107 -81.5 -159t-224.5 -52q-44 0 -82 5.5t-68.5 13.5t-52.5 16.5t-34 15.5z" />
<glyph unicode="&#xbb;" horiz-adv-x="1303" d="M-29 53l502 482l-297 460h240l301 -471l-496 -471h-250zM492 53l501 482l-297 460h240l301 -471l-496 -471h-249z" />
<glyph unicode="&#x2c6;" horiz-adv-x="1042" d="M328 1208l303 361h223l150 -361h-170l-117 205l-207 -205h-182z" />
<glyph unicode="&#x2da;" horiz-adv-x="1042" d="M494 1327q0 42 15.5 83t45 73.5t73 52.5t99.5 20q87 0 130.5 -45t43.5 -122q0 -42 -14.5 -83.5t-44 -75t-73.5 -54.5t-103 -21q-48 0 -80.5 13t-53 35.5t-29.5 54t-9 69.5zM600 1329q0 -34 17.5 -53t60.5 -19q53 0 85 35t32 90q0 34 -20 53t-60 19q-27 0 -48.5 -10.5 t-36 -27.5t-22.5 -39.5t-8 -47.5z" />
<glyph unicode="&#x2dc;" horiz-adv-x="1042" d="M285 1225q17 66 43 119.5t61 92t80.5 59t101.5 20.5q62 0 101 -22t67.5 -49t52.5 -49t56 -22q46 0 73.5 35.5t43.5 91.5h147q-16 -66 -41 -119.5t-60 -92t-82 -59t-108 -20.5q-46 0 -79 10.5t-56.5 26.5t-40.5 35t-32.5 35t-31 26.5t-36.5 10.5q-42 0 -69 -34.5 t-44 -94.5h-147z" />
<glyph unicode="&#x400;" horiz-adv-x="1128" d="M51 0l293 1384h856l-45 -208h-627l-73 -351h532l-43 -209h-532l-88 -403h626l-43 -213h-856zM522 1905h259l116 -361h-155z" />
<glyph unicode="&#x401;" horiz-adv-x="1128" d="M51 0l293 1384h856l-45 -208h-627l-73 -351h532l-43 -209h-532l-88 -403h626l-43 -213h-856zM473 1602q0 14 4.5 39t14.5 47q15 38 46 55.5t85 17.5q57 0 80.5 -19.5t23.5 -57.5q0 -20 -5.5 -46t-16.5 -45q-19 -37 -49.5 -51t-81.5 -14q-59 0 -80 19.5t-21 54.5z M879 1602q0 14 4.5 39t13.5 47q17 38 48 55.5t85 17.5q57 0 80 -19.5t23 -57.5q0 -20 -5.5 -46t-15.5 -45q-20 -37 -50.5 -51t-80.5 -14q-59 0 -80.5 19.5t-21.5 54.5z" />
<glyph unicode="&#x402;" horiz-adv-x="1333" d="M156 0l252 1188h-230l41 196h746l-41 -196h-283l-78 -363h213q119 0 209.5 -18t151.5 -58.5t92 -106.5t31 -163t-33 -184t-113 -152.5t-213 -104t-334 -38.5l39 193q82 1 155.5 12.5t128.5 42t87.5 83t32.5 134.5q0 42 -13 73.5t-43 52t-78 30.5t-118 10h-236l-133 -631 h-233z" />
<glyph unicode="&#x403;" horiz-adv-x="1044" d="M41 0l293 1384h852l-41 -198h-625l-252 -1186h-227zM604 1544l242 361h284l-344 -361h-182z" />
<glyph unicode="&#x404;" horiz-adv-x="1282" d="M102 477q0 55 7 120t21 134t36.5 139.5t54.5 137.5q40 83 97.5 156.5t134 129t172.5 87.5t215 32q98 0 174.5 -19t134.5 -53.5t99.5 -84.5t70.5 -111l-203 -121q-21 48 -47.5 82t-62 56.5t-81 33t-104.5 10.5q-68 0 -125.5 -20.5t-104.5 -57t-84 -87t-63 -109.5 q-14 -32 -26.5 -64.5t-22.5 -64.5h613l-45 -209h-613q-6 -62 -6 -115q0 -78 19 -135t52.5 -94t80.5 -54.5t104 -17.5q66 0 121 12.5t102.5 37t90 61.5t83.5 86l162 -144q-48 -57 -104 -104.5t-124 -82t-151 -54t-186 -19.5q-249 0 -370.5 127t-121.5 379z" />
<glyph unicode="&#x405;" horiz-adv-x="1202" d="M14 242l211 123q16 -39 39 -73t59 -59.5t87.5 -40t124.5 -14.5q63 0 119 14.5t98 41t67 63.5t25 82q0 40 -7.5 70t-33.5 56t-77.5 50t-139.5 53q-107 33 -181 67t-119.5 76.5t-66 98.5t-20.5 133q0 79 33 156t100.5 138t170 98.5t240.5 37.5q174 0 286 -64t181 -188 l-204 -129q-36 80 -106.5 127t-186.5 47q-67 0 -117.5 -16t-84.5 -43t-51.5 -63t-17.5 -76q0 -35 10.5 -60.5t39 -47t79 -42t129.5 -45.5q110 -35 184.5 -73.5t120.5 -86t65.5 -106.5t19.5 -135q0 -107 -44.5 -189t-122 -138t-182 -85t-223.5 -29q-111 0 -195 20t-145 55.5 t-101 85.5t-63 110z" />
<glyph unicode="&#x406;" horiz-adv-x="803" d="M-10 0l39 188h186l215 1008h-186l39 188h602l-39 -188h-187l-215 -1008h187l-39 -188h-602z" />
<glyph unicode="&#x407;" horiz-adv-x="803" d="M-10 0l39 188h186l215 1008h-186l39 188h602l-39 -188h-187l-215 -1008h187l-39 -188h-602zM306 1602q0 14 4.5 39t14.5 47q15 38 46 55.5t85 17.5q57 0 80.5 -19.5t23.5 -57.5q0 -20 -5.5 -46t-16.5 -45q-19 -37 -49.5 -51t-81.5 -14q-59 0 -80 19.5t-21 54.5zM712 1602 q0 14 4.5 39t13.5 47q17 38 48 55.5t85 17.5q57 0 80 -19.5t23 -57.5q0 -20 -5.5 -46t-15.5 -45q-20 -37 -50.5 -51t-80.5 -14q-59 0 -80.5 19.5t-21.5 54.5z" />
<glyph unicode="&#x408;" horiz-adv-x="885" d="M-49 20l90 201q34 -20 83 -32.5t101 -12.5q58 0 98.5 14t69 46.5t48 85.5t36.5 131l197 931h227l-213 -1007q-22 -108 -59 -185t-93.5 -126.5t-135.5 -73t-185 -23.5q-74 0 -143 14t-121 37z" />
<glyph unicode="&#x409;" horiz-adv-x="1974" d="M-88 16l92 187q17 -10 37.5 -14.5t36.5 -4.5q63 0 121.5 58.5t113.5 177.5t108 300t105 427l49 237h771l-109 -512h217q115 0 199 -18.5t138.5 -59t80.5 -104.5t26 -155q0 -25 -4 -55.5t-11.5 -63t-18 -65.5t-23.5 -62q-35 -79 -87 -134t-124 -89.5t-164 -50t-206 -15.5 h-435l250 1186h-317l-31 -142q-34 -158 -72 -299t-81.5 -260t-94 -213.5t-110.5 -160.5t-130 -101t-153 -35q-63 0 -105.5 13t-68.5 28zM1096 205h207q121 0 203.5 39t119.5 131q12 31 20.5 66t8.5 73q0 42 -12 72t-40 48.5t-73 27t-111 8.5h-225z" />
<glyph unicode="&#x40a;" horiz-adv-x="1956" d="M51 0l293 1384h229l-110 -522h530l111 522h229l-110 -522h213q115 0 199 -18t138.5 -58t80.5 -103t26 -153q0 -24 -4 -54.5t-11.5 -63t-18 -65t-23.5 -60.5q-35 -79 -87.5 -134t-124.5 -89t-164 -49t-206 -15h-430l139 659h-530l-139 -659h-230zM1081 205h203 q122 0 204.5 38t119.5 128q12 31 20 65.5t8 71.5q0 41 -12 70t-39.5 47t-72.5 26t-111 8h-221z" />
<glyph unicode="&#x40b;" horiz-adv-x="1354" d="M158 0l252 1188h-232l41 196h746l-41 -196h-285l-74 -352q94 24 177 36.5t157 12.5q90 0 152 -19.5t101 -58.5t56 -97t17 -135q0 -74 -23 -184l-82 -391h-229l74 342q12 62 19 109.5t7 85.5q0 40 -9 68t-30 45t-55 24.5t-84 7.5q-69 0 -144.5 -14.5t-144.5 -34.5 l-135 -633h-231z" />
<glyph unicode="&#x40c;" horiz-adv-x="1241" d="M51 0l293 1384h229l-122 -583h172q40 0 83.5 23.5t95 87.5t114 178t141.5 294h246q-77 -177 -140.5 -296.5t-119.5 -196t-108.5 -118.5t-107.5 -64q73 -37 115 -94.5t64 -142.5t30.5 -201.5t14.5 -270.5h-226q-8 166 -19 280.5t-35 185.5t-66.5 102.5t-114.5 31.5h-182 l-127 -600h-230zM674 1544l242 361h284l-344 -361h-182z" />
<glyph unicode="&#x40d;" horiz-adv-x="1368" d="M51 0l293 1384h217l-215 -1011l752 1011h291l-293 -1384h-215l227 1081l-795 -1081h-262zM585 1905h259l116 -361h-155z" />
<glyph unicode="&#x40e;" horiz-adv-x="1204" d="M-27 20l107 185q16 -9 36.5 -17t41.5 -13t40.5 -8t34.5 -3q25 0 49.5 7t50 26t53 51t58.5 82l39 59l-247 995h231l178 -753l473 753h256l-741 -1138q-58 -89 -107.5 -143t-99 -83t-103 -39t-120.5 -10q-28 0 -58.5 4t-61 10.5t-59 15.5t-51.5 19zM508 1788h205 q0 -81 25 -115.5t85 -34.5t97.5 35.5t56.5 114.5h209q-14 -65 -42.5 -115t-74 -83.5t-109.5 -50.5t-149 -17q-89 0 -147 19.5t-93 54.5t-49 84t-14 108z" />
<glyph unicode="&#x40f;" horiz-adv-x="1350" d="M51 0l293 1384h231l-249 -1171h565l248 1171h231l-293 -1384h-397l-57 -262h-230l58 262h-400z" />
<glyph unicode="&#x410;" horiz-adv-x="1286" d="M-66 0l744 1384h299l166 -1384h-232l-37 319h-528l-174 -319h-238zM453 528h399l-70 623z" />
<glyph unicode="&#x411;" horiz-adv-x="1245" d="M51 0l293 1384h893l-41 -194h-664l-77 -363h219q120 0 207 -19.5t144 -61.5t84.5 -106.5t27.5 -154.5q0 -96 -34 -184t-106.5 -154.5t-186 -106.5t-271.5 -40h-488zM322 197h217q64 0 128 11.5t114.5 42.5t82 84t31.5 136q0 48 -16 79.5t-47.5 50t-77.5 25.5t-107 7h-233 z" />
<glyph unicode="&#x412;" horiz-adv-x="1260" d="M51 0l293 1384h424q124 0 208 -17.5t135 -52.5t73 -88.5t22 -125.5q0 -61 -18 -115.5t-56 -100t-96 -80t-139 -54.5q57 -8 105 -30t83 -58t54.5 -86t19.5 -113q0 -95 -34 -179.5t-104.5 -147.5t-177.5 -99.5t-253 -36.5h-539zM324 209h223q68 0 133 9.5t116 36.5t82 75.5 t31 126.5q0 51 -17.5 83t-53.5 50t-90 24.5t-127 6.5h-209zM455 825h184q67 0 125 12.5t101 39.5t68 69.5t25 102.5q0 75 -54 103t-167 28h-207z" />
<glyph unicode="&#x413;" horiz-adv-x="1044" d="M41 0l293 1384h852l-41 -198h-625l-252 -1186h-227z" />
<glyph unicode="&#x414;" horiz-adv-x="1311" d="M-139 -262l96 459h119q54 78 116.5 189t125.5 257.5t123 330.5t108 410h756l-252 -1187h161l-98 -459h-227l57 262h-805l-57 -262h-223zM313 199h510l211 987h-313q-45 -177 -98.5 -329t-108 -276.5t-106.5 -221t-95 -160.5z" />
<glyph unicode="&#x415;" horiz-adv-x="1128" d="M51 0l293 1384h856l-45 -208h-627l-73 -351h532l-43 -209h-532l-88 -403h626l-43 -213h-856z" />
<glyph unicode="&#x416;" horiz-adv-x="1806" d="M-31 0q71 155 128.5 271.5t115.5 201.5t124 142.5t155 93.5q-39 22 -72.5 64t-59 118.5t-40 196t-15.5 296.5h230q2 -123 9 -214t17.5 -155.5t25.5 -106t34 -65.5t42 -33t50 -9h135l123 583h229l-123 -583h121q42 0 83.5 24.5t90.5 89t109.5 178t138.5 291.5h246 q-75 -177 -139 -296.5t-121 -196t-109 -118.5t-104 -64q73 -37 115 -94.5t64 -142.5t30.5 -201.5t13.5 -270.5h-230q-8 159 -17 272.5t-31.5 186.5t-65 107t-117.5 34h-121l-127 -600h-229l127 600h-109q-67 0 -122 -29t-110 -98t-115.5 -184.5t-137.5 -288.5h-242z" />
<glyph unicode="&#x417;" horiz-adv-x="1169" d="M-18 231l194 115q15 -37 39.5 -70t58 -58t76 -39.5t94.5 -14.5q79 0 145.5 18.5t114.5 54.5t74.5 87.5t26.5 117.5q0 44 -10.5 77t-34.5 55t-64 33t-98 11h-264l43 197h272q54 0 103 15t85.5 44.5t58.5 73t22 101.5q0 44 -17 76.5t-47 53.5t-71.5 31.5t-90.5 10.5 q-103 0 -199 -34.5t-180 -94.5l-90 178q99 68 223 105.5t283 37.5q218 0 328 -91t110 -261q0 -51 -19 -103t-55 -98t-88 -84.5t-118 -62.5q78 -31 123 -98.5t45 -176.5q0 -101 -42.5 -187t-121.5 -148t-191 -97t-251 -35q-100 0 -176 18.5t-132.5 52t-95 81.5t-63.5 108z " />
<glyph unicode="&#x418;" horiz-adv-x="1368" d="M51 0l293 1384h217l-215 -1011l752 1011h291l-293 -1384h-215l227 1081l-795 -1081h-262z" />
<glyph unicode="&#x419;" horiz-adv-x="1368" d="M51 0l293 1384h217l-215 -1011l752 1011h291l-293 -1384h-215l227 1081l-795 -1081h-262zM553 1788h205q0 -81 25 -115.5t85 -34.5t97.5 35.5t56.5 114.5h209q-14 -65 -42.5 -115t-74 -83.5t-109.5 -50.5t-149 -17q-89 0 -147 19.5t-93 54.5t-49 84t-14 108z" />
<glyph unicode="&#x41a;" horiz-adv-x="1241" d="M51 0l293 1384h229l-122 -583h172q40 0 83.5 23.5t95 87.5t114 178t141.5 294h246q-77 -177 -140.5 -296.5t-119.5 -196t-108.5 -118.5t-107.5 -64q73 -37 115 -94.5t64 -142.5t30.5 -201.5t14.5 -270.5h-226q-8 166 -19 280.5t-35 185.5t-66.5 102.5t-114.5 31.5h-182 l-127 -600h-230z" />
<glyph unicode="&#x41b;" horiz-adv-x="1366" d="M-88 16l92 187q17 -10 37.5 -14.5t36.5 -4.5q63 0 121.5 58.5t113.5 177.5t108 300t105 427l49 237h811l-292 -1384h-228l250 1186h-358l-31 -142q-34 -158 -72 -299t-81.5 -260t-94 -213.5t-110.5 -160.5t-130 -101t-153 -35q-63 0 -105.5 13t-68.5 28z" />
<glyph unicode="&#x41c;" horiz-adv-x="1597" d="M51 0l293 1384h270l207 -706l510 706h285l-293 -1384h-219l221 1038l-494 -673h-137l-202 673l-220 -1038h-221z" />
<glyph unicode="&#x41d;" horiz-adv-x="1358" d="M51 0l293 1384h229l-118 -561h575l119 561h229l-293 -1384h-229l129 610h-575l-129 -610h-230z" />
<glyph unicode="&#x41e;" horiz-adv-x="1337" d="M102 465q0 54 5.5 115t18 124t31.5 127.5t46 126.5q40 96 94.5 179t129.5 144.5t172.5 96.5t225.5 35q114 0 203.5 -32t151 -95t93.5 -157.5t32 -219.5q0 -36 -3.5 -80.5t-11.5 -94.5t-20.5 -104.5t-30.5 -109.5q-38 -121 -94 -222t-135 -173.5t-183.5 -113t-238.5 -40.5 q-135 0 -228 36.5t-150.5 101.5t-82.5 156t-25 200zM342 475q0 -81 14.5 -138t46 -92t79.5 -51t116 -16q151 0 249.5 99t158.5 288q29 90 43 180t14 158q0 157 -61 230t-197 73q-71 0 -127.5 -21t-102 -61.5t-82 -98.5t-67.5 -132q-21 -53 -37 -108.5t-26.5 -110 t-15.5 -105.5t-5 -94z" />
<glyph unicode="&#x41f;" horiz-adv-x="1343" d="M51 0l293 1384h1020l-293 -1384h-231l250 1180h-558l-249 -1180h-232z" />
<glyph unicode="&#x420;" horiz-adv-x="1186" d="M51 0l293 1384h459q95 0 169.5 -17.5t125.5 -56.5t77.5 -102t26.5 -155q0 -74 -12 -147.5t-38.5 -140.5t-70 -124.5t-106 -100t-146.5 -67t-192 -24.5h-262l-94 -449h-230zM420 655h213q98 0 161 31t99.5 82.5t50.5 117.5t14 136q0 40 -10.5 69t-34.5 48.5t-63 29 t-96 9.5h-224z" />
<glyph unicode="&#x421;" horiz-adv-x="1282" d="M102 477q0 55 7 120t21 134t36.5 139.5t54.5 137.5q40 83 97.5 156.5t134 129t172.5 87.5t215 32q98 0 174.5 -19t134.5 -53.5t99.5 -84.5t70.5 -111l-203 -121q-21 48 -47.5 82t-62 56.5t-81 33t-104.5 10.5q-68 0 -125.5 -20.5t-104.5 -57t-84 -87t-63 -109.5 q-25 -58 -44 -117.5t-31.5 -117.5t-18.5 -113.5t-6 -104.5q0 -78 19 -135t52.5 -94t80.5 -54.5t104 -17.5q66 0 121 12.5t102.5 37t90 61.5t83.5 86l162 -144q-48 -57 -104 -104.5t-124 -82t-151 -54t-186 -19.5q-249 0 -370.5 127t-121.5 379z" />
<glyph unicode="&#x422;" horiz-adv-x="1169" d="M174 1171l45 213h1096l-45 -213h-434l-248 -1171h-228l248 1171h-434z" />
<glyph unicode="&#x423;" horiz-adv-x="1204" d="M-27 20l107 185q16 -9 36.5 -17t41.5 -13t40.5 -8t34.5 -3q25 0 49.5 7t50 26t53 51t58.5 82l39 59l-247 995h231l178 -753l473 753h256l-741 -1138q-58 -89 -107.5 -143t-99 -83t-103 -39t-120.5 -10q-28 0 -58.5 4t-61 10.5t-59 15.5t-51.5 19z" />
<glyph unicode="&#x424;" horiz-adv-x="1495" d="M96 584q0 28 6.5 73t19.5 97.5t33 106.5t48 100q81 135 227 202t367 82l39 187h211l-39 -187q120 -10 208 -41t145.5 -84.5t85.5 -130.5t28 -178q0 -38 -7 -88.5t-22 -105.5t-38.5 -111t-57.5 -105q-85 -122 -227.5 -182t-350.5 -74l-39 -192h-211l41 192 q-127 11 -215.5 44t-144.5 88t-81.5 132t-25.5 175zM334 584q0 -56 12 -100.5t43 -76t83 -49.5t132 -22l154 719q-65 -4 -118 -16t-96 -33.5t-76 -54t-58 -77.5q-36 -61 -56 -138t-20 -152zM813 336q114 6 194 41.5t136 114.5q45 65 69.5 148t24.5 167q0 57 -14 101t-46 75 t-83.5 49t-126.5 23z" />
<glyph unicode="&#x425;" horiz-adv-x="1221" d="M-70 0l598 717l-288 667h247l203 -497l406 497h268l-588 -690l295 -694h-248l-211 524l-415 -524h-267z" />
<glyph unicode="&#x426;" horiz-adv-x="1352" d="M51 0l293 1384h229l-249 -1171h546l248 1171h228l-250 -1175h161l-100 -471h-225l57 262h-938z" />
<glyph unicode="&#x427;" horiz-adv-x="1245" d="M158 797q0 40 5.5 85.5t16.5 98.5l84 403h228l-74 -352q-14 -63 -21.5 -111t-7.5 -83q0 -41 10 -69t32 -45t57 -24.5t85 -7.5q76 0 162 13.5t164 33.5l135 645h232l-293 -1384h-232l115 539q-204 -52 -369 -52q-90 0 -152.5 20t-101.5 59t-57 97t-18 134z" />
<glyph unicode="&#x428;" horiz-adv-x="1845" d="M51 0l293 1384h229l-249 -1175h417l250 1175h228l-250 -1175h417l250 1175h230l-293 -1384h-1522z" />
<glyph unicode="&#x429;" horiz-adv-x="1870" d="M51 0l293 1384h229l-249 -1175h417l250 1175h228l-250 -1175h417l250 1175h230l-250 -1177h162l-101 -469h-229l57 262h-1454z" />
<glyph unicode="&#x42a;" horiz-adv-x="1466" d="M178 1186l41 198h619l-109 -512h217q115 0 199 -18.5t138.5 -59t81 -104.5t26.5 -155q0 -25 -4 -55.5t-11.5 -63t-18.5 -65.5t-24 -62q-35 -79 -87 -134t-124 -89.5t-164 -50t-206 -15.5h-435l250 1186h-389zM588 205h207q121 0 203.5 39t119.5 131q13 31 21 66t8 73 q0 42 -12 72t-40 48.5t-73 27t-111 8.5h-225z" />
<glyph unicode="&#x42b;" horiz-adv-x="1726" d="M51 0l293 1384h229l-108 -512h215q115 0 199 -18.5t138.5 -59t80.5 -104.5t26 -155q0 -25 -4 -55.5t-11 -63t-17.5 -65.5t-22.5 -62q-35 -79 -87.5 -134t-125 -89.5t-165 -50t-206.5 -15.5h-434zM322 205h208q121 0 204 39t120 131q12 31 19.5 66t7.5 73q0 42 -12 72 t-39 48.5t-72 27t-111 8.5h-225zM1225 0l293 1384h229l-293 -1384h-229z" />
<glyph unicode="&#x42c;" horiz-adv-x="1202" d="M51 0l293 1384h229l-108 -512h215q115 0 199 -18.5t138.5 -59t80.5 -104.5t26 -155q0 -25 -4 -55.5t-11 -63t-17.5 -65.5t-22.5 -62q-35 -79 -87.5 -134t-125 -89.5t-165 -50t-206.5 -15.5h-434zM322 205h208q121 0 204 39t120 131q12 31 19.5 66t7.5 73q0 42 -12 72 t-39 48.5t-72 27t-111 8.5h-225z" />
<glyph unicode="&#x42d;" horiz-adv-x="1270" d="M18 238l203 122q22 -48 49 -82.5t62.5 -56.5t81 -32.5t104.5 -10.5q67 0 124.5 20.5t104.5 57t84 87t64 110.5q14 34 27 69t24 72h-612l45 209h608q6 52 6 102q0 78 -18.5 134.5t-52 93.5t-80.5 55t-103 18q-67 0 -121.5 -12.5t-102 -37t-90.5 -61.5t-85 -85l-160 141 q48 57 103.5 105t124 83t151.5 54.5t186 19.5q249 0 370.5 -126.5t121.5 -381.5q0 -55 -7 -119.5t-21.5 -133t-37.5 -139.5t-55 -138q-39 -83 -96 -156.5t-133.5 -128.5t-173 -87t-213.5 -32q-98 0 -175 18.5t-135.5 53.5t-100.5 84t-71 111z" />
<glyph unicode="&#x42e;" horiz-adv-x="1878" d="M51 0l293 1384h229l-127 -598h259q12 44 26 89.5t33 89.5q39 93 92 174.5t125.5 142t168 96t220.5 35.5q114 0 202 -32t149 -96t92.5 -160t31.5 -224q0 -91 -16 -192.5t-47 -198.5q-38 -120 -93 -219t-133 -170.5t-181.5 -110.5t-239.5 -39q-135 0 -225 36.5t-145 101.5 t-78 156t-23 200q0 60 6 125h-267l-122 -590h-230zM893 475q0 -84 13.5 -142.5t43.5 -95t77.5 -53t115.5 -16.5q77 0 140 28.5t113 80t88.5 124t65.5 160.5q28 90 41 180.5t13 161.5q0 157 -58.5 235.5t-191.5 78.5q-72 0 -128.5 -22.5t-102 -64.5t-81.5 -102t-67 -135 q-21 -53 -36 -108.5t-25.5 -110t-15.5 -105.5t-5 -94z" />
<glyph unicode="&#x42f;" horiz-adv-x="1235" d="M-61 0l487 582q-47 10 -86.5 30t-68.5 53t-45.5 81t-16.5 114q0 62 15 128t40 128q29 70 74 120.5t109 83.5t148 48.5t191 15.5h469l-292 -1384h-230l115 545h-186l-445 -545h-278zM446 889q0 -39 12.5 -65.5t39.5 -43t71 -23.5t107 -7h215l92 430h-227q-52 0 -93 -6 t-73 -19.5t-56 -35.5t-42 -54q-10 -18 -18.5 -40.5t-14.5 -46.5t-9.5 -47.5t-3.5 -41.5z" />
<glyph unicode="&#x430;" horiz-adv-x="1096" d="M35 244q0 93 39 165t106.5 122.5t157.5 80t192 37.5l242 23l8 49q6 30 6 55q0 35 -13 59t-37 38.5t-58.5 21t-77.5 6.5q-96 0 -162 -31.5t-104 -81.5l-146 109q30 39 69 72.5t90 57.5t115.5 38t145.5 14q105 0 179 -16.5t120.5 -49.5t68 -82t21.5 -114q0 -31 -5.5 -75 t-14.5 -91l-137 -651h-201l25 119q-88 -66 -175.5 -108t-171.5 -42q-145 0 -213.5 69t-68.5 206zM260 260q0 -63 33.5 -88t89.5 -25q35 0 73 11t76.5 29t78 42.5t77.5 51.5l49 229l-151 -14q-64 -6 -123 -20t-104 -40.5t-72 -69t-27 -106.5z" />
<glyph unicode="&#x431;" horiz-adv-x="1165" d="M96 424q0 40 6.5 95t18.5 118t29 131.5t38 136.5q36 113 78.5 199t99 150.5t131.5 109t176 75.5t232.5 49.5t302.5 31.5l-39 -187q-125 -10 -223.5 -21.5t-176 -30.5t-136.5 -48.5t-103 -75.5t-76 -111.5t-57 -156.5q82 60 172.5 90.5t171.5 30.5q183 0 268 -89.5 t85 -269.5q0 -38 -8 -89t-23.5 -106.5t-37 -110.5t-48.5 -101q-79 -134 -201.5 -204.5t-283.5 -70.5q-205 0 -300.5 114t-95.5 341zM313 395q0 -127 50.5 -190.5t140.5 -63.5q93 0 161 47t113 125q21 36 38 77.5t29 84.5t18.5 86t6.5 84q0 99 -44 145t-140 46q-33 0 -65 -6 t-61.5 -16t-56.5 -23t-49 -26q-53 -32 -98 -71q-18 -57 -30.5 -136t-12.5 -163z" />
<glyph unicode="&#x432;" horiz-adv-x="1104" d="M43 0l221 1049h418q87 0 151 -11t106 -37t62.5 -68.5t20.5 -105.5q0 -86 -53.5 -154.5t-167.5 -111.5q40 -10 73 -26.5t55.5 -42.5t35 -62.5t12.5 -85.5q0 -73 -30.5 -135.5t-89.5 -109t-144.5 -73t-196.5 -26.5h-473zM285 158h207q41 0 88 8t86.5 29t65.5 57.5t26 93.5 q0 35 -13 58t-39.5 36.5t-66.5 19t-94 5.5h-197zM383 623h176q119 0 180.5 43t61.5 120q0 32 -12 52.5t-33 32t-48.5 16t-58.5 4.5h-209z" />
<glyph unicode="&#x433;" horiz-adv-x="993" d="M37 246q0 21 3.5 47t12.5 54.5t23.5 57t36.5 54.5q31 34 71 59.5t89 45.5t106.5 36t122.5 31q73 16 114.5 32t67.5 39q17 14 28 41.5t11 53.5q0 51 -42.5 77.5t-115.5 26.5q-44 0 -78.5 -9.5t-62.5 -25.5t-50.5 -37t-41.5 -43l-129 121q68 85 161 128.5t211 43.5 q99 0 168 -20.5t112.5 -57t63 -88t19.5 -112.5q0 -13 -2 -32.5t-7.5 -42.5t-15 -47t-24.5 -46q-26 -40 -64 -70t-86 -53t-105.5 -41t-123.5 -33q-78 -18 -126 -35t-79 -39q-28 -18 -41.5 -47.5t-13.5 -58.5q0 -32 14 -53t38 -33.5t56 -17.5t68 -5q78 0 139 30t117 93 l131 -127q-31 -38 -71 -69.5t-90.5 -55t-110 -36.5t-129.5 -13q-83 0 -152 14.5t-118.5 47t-77 85.5t-27.5 130z" />
<glyph unicode="&#x434;" horiz-adv-x="1141" d="M80 373q0 53 9.5 118t31.5 133.5t58 137t89 127.5q68 77 166 118.5t221 41.5q57 0 110 -20t95 -52q0 95 -16.5 157.5t-46 99t-70 51.5t-88.5 15q-38 0 -70 -6.5t-60.5 -18.5t-55 -30.5t-54.5 -42.5l-120 152q40 31 80.5 56.5t84 42.5t93.5 26.5t110 9.5q90 0 168 -29 t135 -93t90 -165.5t33 -245.5q0 -182 -28 -325.5t-68 -251.5q-35 -92 -82.5 -167.5t-110.5 -129.5t-141.5 -83.5t-175.5 -29.5q-105 0 -178.5 27t-120 79t-67.5 127t-21 171zM299 369q0 -109 41.5 -161t134.5 -52q104 0 176 70t119 192q32 81 54 183t30 208q-46 25 -95.5 38 t-103.5 13q-78 0 -136.5 -29t-98.5 -81q-29 -36 -51 -82t-38 -96t-24 -102t-8 -101z" />
<glyph unicode="&#x435;" horiz-adv-x="1090" d="M76 354q0 64 10 130.5t30.5 132.5t50.5 129t69 120q33 48 75.5 87.5t95 67.5t116.5 43t139 15q93 0 162 -24t114.5 -68.5t67.5 -108.5t22 -145q0 -11 -1 -27.5t-3 -36t-4.5 -39.5t-5.5 -36l-25 -115h-678q-8 -34 -11 -65.5t-3 -59.5q0 -109 51 -153.5t156 -44.5 q80 0 144.5 30.5t121.5 87.5l125 -131q-38 -41 -80 -73.5t-91.5 -55t-109 -34t-131.5 -11.5q-105 0 -181.5 27t-127 77t-74.5 121t-24 160zM346 637h465q5 26 7.5 50.5t2.5 45.5q0 85 -40.5 128.5t-135.5 43.5q-71 0 -122 -24t-89 -72q-26 -32 -48.5 -76.5t-39.5 -95.5z" />
<glyph unicode="&#x436;" horiz-adv-x="1954" d="M-51 -2l65 184q20 -11 50.5 -18.5t56.5 -7.5q73 0 130.5 45t97.5 118.5t60.5 167t20.5 191.5q0 48 -7.5 87.5t-25.5 67.5t-47.5 43t-73.5 15q-64 0 -118 -23l-49 172q38 16 82 27.5t104 11.5q95 0 160.5 -27.5t106 -80t58 -128.5t17.5 -173q0 -56 -6.5 -112t-20.5 -112 q63 66 119.5 134t106.5 141.5t92.5 154.5t77.5 173h161l-118 -562q53 72 117 146.5t132.5 143.5t138 128t132.5 99q55 35 116 55t136 20q48 0 87.5 -8t73.5 -20l-65 -185q-20 10 -50.5 17.5t-56.5 7.5q-74 0 -131 -44t-97 -117t-60.5 -166.5t-20.5 -192.5q0 -49 7.5 -89 t25.5 -68t47.5 -43t73.5 -15q32 0 62.5 6.5t56.5 17.5l51 -174q-45 -17 -87 -27t-102 -10q-95 0 -160.5 27.5t-106 80t-58 128t-17.5 172.5q0 116 27 233q-65 -68 -122.5 -137.5t-107.5 -144.5t-91.5 -156t-73.5 -172h-162l123 582q-47 -64 -107 -134t-124.5 -137.5 t-127.5 -127t-116 -101.5q-63 -51 -136 -82t-165 -31q-48 0 -88 7.5t-74 21.5z" />
<glyph unicode="&#x437;" horiz-adv-x="965" d="M-31 156l183 110q32 -62 79 -89t121 -27q45 0 91.5 10.5t84.5 33t62 58t24 86.5q0 62 -38.5 91.5t-129.5 29.5h-225l35 164h217q38 0 79.5 6.5t76 23.5t56.5 47t22 78q0 33 -13.5 56t-37.5 37.5t-56.5 21t-71.5 6.5q-86 0 -146.5 -29t-105.5 -86l-139 111 q76 94 179.5 139t240.5 45q183 0 274 -70.5t91 -209.5q0 -42 -14.5 -82.5t-41.5 -76t-66 -64.5t-89 -48q51 -20 85.5 -66.5t34.5 -121.5q0 -89 -36 -158.5t-100.5 -116.5t-153 -71.5t-193.5 -24.5q-84 0 -148 14.5t-110 40t-75.5 59.5t-45.5 73z" />
<glyph unicode="&#x438;" horiz-adv-x="1165" d="M98 213q0 42 7 93t18 102l135 641h209l-125 -598q-12 -56 -19.5 -101t-7.5 -80q0 -60 24.5 -84t74.5 -24q39 0 81.5 12.5t86.5 34.5t88.5 52.5t87.5 66.5l153 721h211l-221 -1049h-211l31 145q-42 -38 -87 -70t-91.5 -55.5t-94.5 -37t-96 -13.5q-72 0 -120.5 19.5 t-78.5 52.5t-42.5 77.5t-12.5 94.5z" />
<glyph unicode="&#x439;" horiz-adv-x="1165" d="M98 213q0 42 7 93t18 102l135 641h209l-125 -598q-12 -56 -19.5 -101t-7.5 -80q0 -60 24.5 -84t74.5 -24q39 0 81.5 12.5t86.5 34.5t88.5 52.5t87.5 66.5l153 721h211l-221 -1049h-211l31 145q-42 -38 -87 -70t-91.5 -55.5t-94.5 -37t-96 -13.5q-72 0 -120.5 19.5 t-78.5 52.5t-42.5 77.5t-12.5 94.5zM401 1454h205q0 -80 25 -114.5t88 -34.5q57 0 96 35.5t57 113.5h207q-14 -66 -42.5 -116t-74 -83t-109.5 -50t-149 -17q-82 0 -139.5 18t-94 52t-53 83.5t-16.5 112.5z" />
<glyph unicode="&#x43a;" horiz-adv-x="1047" d="M37 0l221 1049h207l-90 -433h108q42 0 80 17.5t79 65.5t89.5 132.5t110.5 217.5h223q-42 -94 -78.5 -165t-68 -124t-60 -90t-56 -62.5t-55 -42t-57.5 -28.5q59 -25 93.5 -67t53.5 -106.5t27.5 -154t16.5 -209.5h-207q-10 125 -20 210.5t-30.5 138t-55.5 75t-95 22.5h-135 l-94 -446h-207z" />
<glyph unicode="&#x43b;" horiz-adv-x="1133" d="M-96 4l71 168q16 -3 32 -4.5t26 -1.5q49 0 94 36t87.5 118.5t83 215t81.5 326.5l39 187h678l-222 -1049h-206l186 883h-268l-23 -105q-46 -210 -97 -360.5t-114.5 -247t-143.5 -142.5t-185 -46q-15 0 -32 2t-33.5 5t-30.5 7t-23 8z" />
<glyph unicode="&#x43c;" horiz-adv-x="1323" d="M37 0l221 1049h219l172 -539l402 539h237l-221 -1049h-193l164 772l-374 -504h-111l-162 504l-164 -772h-190z" />
<glyph unicode="&#x43d;" horiz-adv-x="1169" d="M37 0l221 1049h209l-90 -426h457l90 426h209l-222 -1049h-209l97 457h-459l-94 -457h-209z" />
<glyph unicode="&#x43e;" horiz-adv-x="1149" d="M80 379q0 54 10 122t32.5 139.5t59 142t90.5 128.5q71 77 168 122.5t232 45.5q93 0 166.5 -26t125 -78t78.5 -131t27 -185q0 -55 -11 -125t-36 -144t-65.5 -145.5t-98.5 -129.5q-37 -37 -77.5 -64.5t-86.5 -45.5t-99.5 -27t-115.5 -9q-109 0 -185 27.5t-123.5 80 t-69 128.5t-21.5 174zM299 373q0 -55 10.5 -95.5t34 -67.5t61.5 -40.5t93 -13.5q68 0 121.5 28t95.5 76q31 36 56.5 85t42.5 102.5t26.5 108t9.5 101.5q0 234 -201 234q-72 0 -128.5 -32.5t-98.5 -86.5q-29 -37 -51.5 -85t-38.5 -101.5t-24.5 -108t-8.5 -104.5z" />
<glyph unicode="&#x43f;" horiz-adv-x="1165" d="M43 0l221 1049h211l-31 -146q42 37 87 69t92 56t96 37.5t100 13.5q70 0 117.5 -19.5t76.5 -52.5t41.5 -77.5t12.5 -95.5q0 -42 -7 -93t-18 -102l-135 -639h-209l127 598q11 56 18 101t7 92q0 46 -24.5 71t-73.5 25q-39 0 -82 -12.5t-87 -35t-88 -53t-87 -65.5l-154 -721 h-211z" />
<glyph unicode="&#x440;" d="M-39 -395l303 1444h201l-21 -105q76 60 157 97.5t171 37.5q164 0 244 -91.5t80 -282.5q0 -66 -13 -146t-40.5 -161.5t-71 -159t-105 -137t-142 -96t-181.5 -36.5q-88 0 -155.5 29.5t-115.5 83.5l-102 -477h-209zM309 262q42 -45 97 -73.5t124 -28.5q57 0 104.5 24.5 t85 66t66 95.5t47 113t28 118t9.5 111q0 106 -37.5 153.5t-121.5 47.5q-39 0 -78 -9.5t-77 -26t-73 -38t-65 -45.5z" />
<glyph unicode="&#x441;" horiz-adv-x="1024" d="M78 377q0 63 13 139.5t42 154.5t75 151.5t111 130.5t150.5 91.5t194.5 34.5q139 0 227.5 -47t136.5 -141l-182 -109q-26 56 -72 82.5t-125 26.5q-62 0 -112 -25t-89 -66t-67 -94.5t-46.5 -111.5t-27 -116t-8.5 -107t9.5 -89t32 -68t60.5 -43t95 -15q74 0 133.5 32 t113.5 91l144 -123q-72 -85 -176 -136t-238 -51q-106 0 -181 27.5t-122.5 80t-69.5 128t-22 172.5z" />
<glyph unicode="&#x442;" horiz-adv-x="1716" d="M43 0l221 1049h211l-31 -146q42 40 86.5 72.5t88 55.5t86 35.5t81.5 12.5q121 0 177.5 -51.5t58.5 -144.5q105 93 194 144.5t170 51.5q69 0 115 -17.5t73.5 -48.5t38.5 -73.5t11 -91.5q0 -37 -5.5 -79.5t-16.5 -90.5l-144 -678h-211l131 618q13 57 20 99.5t7 73.5 q0 96 -90 96q-35 0 -73.5 -14t-78 -37.5t-78.5 -53.5t-75 -61l-154 -721h-211l131 618q13 59 19 101t6 65q0 51 -19.5 77t-72.5 26q-35 0 -74 -15.5t-79 -39.5t-78 -53.5t-70 -57.5l-154 -721h-211z" />
<glyph unicode="&#x443;" horiz-adv-x="1040" d="M-195 -362l76 178q31 -14 65 -20.5t66 -6.5q33 0 63 11t60 35.5t62 65.5t69 101l45 76l-164 971h211l111 -730l418 730h229l-680 -1125q-51 -86 -98 -146.5t-97.5 -99t-110 -56t-136.5 -17.5q-47 0 -97 9.5t-92 23.5z" />
<glyph unicode="&#x444;" horiz-adv-x="1696" d="M76 352q0 69 14 149.5t42 161t70.5 156t99.5 133t129 92.5t159 35q44 0 79.5 -8t65.5 -23.5t55.5 -37.5t49.5 -49l45 210q18 87 46 152.5t71.5 109t105.5 65.5t149 22q44 0 76.5 -6.5t63.5 -14.5l-47 -186q-59 18 -107 18q-33 0 -58 -8t-44 -26.5t-33 -50t-25 -79.5 l-45 -206q69 58 138.5 88t150.5 30q150 0 220.5 -91.5t70.5 -282.5q0 -66 -12.5 -146t-39.5 -161.5t-69 -159t-100.5 -137t-134.5 -96t-170 -36.5q-41 0 -74.5 9t-62 24.5t-53 38t-46.5 49.5l-29 -137q-18 -87 -46.5 -152.5t-72.5 -109t-106 -65t-147 -21.5q-72 0 -123 12.5 t-88 26.5l65 182q44 -16 85 -25.5t81 -9.5q31 0 55 6.5t43 24.5t33 50.5t25 84.5l24 133q-74 -62 -142.5 -91.5t-145.5 -29.5q-148 0 -219.5 93t-71.5 290zM287 358q0 -105 35 -151.5t110 -46.5q34 0 69.5 9t69.5 24.5t65.5 36t57.5 44.5l109 504q-18 23 -38.5 43.5 t-44 35.5t-51 23.5t-59.5 8.5q-57 0 -103.5 -27t-82 -71.5t-61.5 -101t-43 -115.5t-25 -115.5t-8 -100.5zM893 274q18 -23 38.5 -43.5t43.5 -36.5t49 -25t57 -9q52 0 96.5 24.5t80.5 66t64.5 95.5t47.5 113t29 118t10 111q0 106 -36 153.5t-111 47.5q-69 0 -138.5 -31.5 t-122.5 -79.5z" />
<glyph unicode="&#x445;" horiz-adv-x="1024" d="M-68 0l459 541l-233 508h231l154 -357l293 357h256l-461 -531l241 -518h-235l-158 367l-291 -367h-256z" />
<glyph unicode="&#x446;" horiz-adv-x="1188" d="M98 213q0 42 7 93t18 102l135 641h209l-125 -598q-12 -56 -19.5 -101t-7.5 -80q0 -60 24.5 -84t74.5 -24q39 0 81.5 12.5t86.5 34.5t88.5 52.5t87.5 66.5l153 721h211l-188 -887h158l-91 -424h-192l55 262h-121v162q-48 -43 -97 -78.5t-98.5 -61t-98.5 -39.5t-97 -14 q-72 0 -120.5 19.5t-78.5 52.5t-42.5 77.5t-12.5 94.5z" />
<glyph unicode="&#x447;" horiz-adv-x="1083" d="M106 573q0 31 6 70t17 90l66 316h208l-59 -285q-11 -50 -15.5 -90t-4.5 -68q0 -60 30.5 -82t100.5 -22q26 0 60.5 4t72.5 10.5t76 15t71 17.5l105 500h207l-222 -1049h-207l80 387q-42 -12 -84.5 -23.5t-83 -19.5t-77 -13t-66.5 -5q-146 0 -213.5 59.5t-67.5 187.5z" />
<glyph unicode="&#x448;" horiz-adv-x="1716" d="M92 199q0 38 5 81t16 91l143 678h211l-131 -619q-25 -115 -25 -174q0 -94 90 -94q35 0 73.5 14t78 37.5t79 53t75.5 61.5l151 721h213l-131 -619q-12 -59 -19.5 -101t-7.5 -67q0 -49 19.5 -74.5t75.5 -25.5q34 0 73.5 15t79 39t78 53.5t70.5 58.5l151 721h211l-221 -1049 h-211l31 145q-42 -40 -85.5 -72.5t-87.5 -55.5t-86.5 -35.5t-82.5 -12.5q-120 0 -176.5 51.5t-59.5 145.5q-103 -94 -192 -145.5t-170 -51.5q-70 0 -116 18t-73 49t-38 73t-11 90z" />
<glyph unicode="&#x449;" horiz-adv-x="1739" d="M92 199q0 38 5 81t16 91l143 678h211l-131 -619q-25 -115 -25 -174q0 -94 90 -94q35 0 73.5 14t78 37.5t79 53t75.5 61.5l151 721h213l-131 -619q-12 -59 -19.5 -101t-7.5 -67q0 -49 19.5 -74.5t75.5 -25.5q34 0 73.5 15t79 39t78 53.5t70.5 58.5l151 721h211l-186 -887 h155l-90 -424h-192l57 262h-121v166q-97 -94 -191 -145.5t-175 -51.5q-120 0 -176.5 51.5t-59.5 145.5q-103 -94 -192 -145.5t-170 -51.5q-70 0 -116 18t-73 49t-38 73t-11 90z" />
<glyph unicode="&#x44a;" horiz-adv-x="1200" d="M92 887l33 162h514l-82 -383h180q189 0 282 -63.5t93 -209.5q0 -101 -40 -175t-108.5 -122.5t-158.5 -72t-189 -23.5h-407l188 887h-305zM451 162h165q52 0 102 10.5t88 35t61.5 66.5t23.5 105q0 64 -44.5 93.5t-152.5 29.5h-172z" />
<glyph unicode="&#x44b;" horiz-adv-x="1485" d="M43 0l221 1049h209l-82 -383h180q189 0 282 -63.5t93 -209.5q0 -101 -40 -175t-108.5 -122.5t-158 -72t-188.5 -23.5h-408zM285 162h166q52 0 101.5 10.5t87.5 35t61.5 66.5t23.5 105q0 64 -44.5 93.5t-152.5 29.5h-172zM1008 0l221 1049h211l-221 -1049h-211z" />
<glyph unicode="&#x44c;" horiz-adv-x="1034" d="M43 0l221 1049h209l-82 -383h180q189 0 282 -63.5t93 -209.5q0 -101 -40 -175t-108.5 -122.5t-158 -72t-188.5 -23.5h-408zM285 162h166q52 0 101.5 10.5t87.5 35t61.5 66.5t23.5 105q0 64 -44.5 93.5t-152.5 29.5h-172z" />
<glyph unicode="&#x44d;" horiz-adv-x="1024" d="M-6 158l182 106q26 -54 72 -81t125 -27q61 0 111 24t88.5 64.5t67 93.5t46.5 111h-485l35 163h481q6 34 6 66q0 48 -9.5 87.5t-32 67.5t-60.5 43t-95 15q-74 0 -133.5 -32t-113.5 -89l-144 123q72 85 176 135.5t238 50.5q106 0 181 -27.5t122.5 -80t69.5 -128.5t22 -173 q0 -62 -13 -138.5t-42 -154.5t-75 -151.5t-111 -130.5t-150.5 -91.5t-194.5 -34.5q-139 0 -227.5 46.5t-136.5 142.5z" />
<glyph unicode="&#x44e;" horiz-adv-x="1612" d="M37 0l221 1049h209l-94 -445h209q22 84 64 169t108.5 153t160.5 110.5t220 42.5q195 0 296 -107t101 -319q0 -55 -12 -127t-39.5 -148t-72 -149.5t-110 -131t-153 -93t-201.5 -35.5q-109 0 -184 27t-121.5 79.5t-67 129t-20.5 174.5v30t2 31h-215l-92 -440h-209zM762 373 q0 -53 10 -95.5t33 -72.5t61.5 -46t94.5 -16q59 0 108 24t88.5 64.5t68.5 93.5t48.5 110t29 114.5t9.5 107.5q0 56 -12 102t-36.5 78.5t-62 50t-88.5 17.5q-61 0 -111 -24.5t-89 -65.5t-67.5 -95t-47.5 -113.5t-28 -119.5t-9 -114z" />
<glyph unicode="&#x44f;" horiz-adv-x="1065" d="M-53 0l360 440q-81 25 -122.5 82t-41.5 154q0 87 29.5 156t87 117t142 74t194.5 26h426l-221 -1049h-209l88 420h-154l-333 -420h-246zM358 690q0 -57 40.5 -82.5t138.5 -25.5h178l65 303h-172q-57 0 -103 -10t-78.5 -33t-50.5 -60t-18 -92z" />
<glyph unicode="&#x450;" horiz-adv-x="1090" d="M76 354q0 64 10 130.5t30.5 132.5t50.5 129t69 120q33 48 75.5 87.5t95 67.5t116.5 43t139 15q93 0 162 -24t114.5 -68.5t67.5 -108.5t22 -145q0 -11 -1 -27.5t-3 -36t-4.5 -39.5t-5.5 -36l-25 -115h-678q-8 -34 -11 -65.5t-3 -59.5q0 -109 51 -153.5t156 -44.5 q80 0 144.5 30.5t121.5 87.5l125 -131q-38 -41 -80 -73.5t-91.5 -55t-109 -34t-131.5 -11.5q-105 0 -181.5 27t-127 77t-74.5 121t-24 160zM346 637h465q5 26 7.5 50.5t2.5 45.5q0 85 -40.5 128.5t-135.5 43.5q-71 0 -122 -24t-89 -72q-26 -32 -48.5 -76.5t-39.5 -95.5z M497 1569h259l116 -361h-155z" />
<glyph unicode="&#x451;" horiz-adv-x="1090" d="M76 354q0 64 10 130.5t30.5 132.5t50.5 129t69 120q33 48 75.5 87.5t95 67.5t116.5 43t139 15q93 0 162 -24t114.5 -68.5t67.5 -108.5t22 -145q0 -11 -1 -27.5t-3 -36t-4.5 -39.5t-5.5 -36l-25 -115h-678q-8 -34 -11 -65.5t-3 -59.5q0 -109 51 -153.5t156 -44.5 q80 0 144.5 30.5t121.5 87.5l125 -131q-38 -41 -80 -73.5t-91.5 -55t-109 -34t-131.5 -11.5q-105 0 -181.5 27t-127 77t-74.5 121t-24 160zM346 637h465q5 26 7.5 50.5t2.5 45.5q0 85 -40.5 128.5t-135.5 43.5q-71 0 -122 -24t-89 -72q-26 -32 -48.5 -76.5t-39.5 -95.5z M372 1266q0 14 4.5 39t14.5 47q15 38 46 55.5t85 17.5q57 0 80.5 -19.5t23.5 -57.5q0 -20 -5.5 -46t-16.5 -45q-19 -37 -49.5 -51t-81.5 -14q-59 0 -80 19.5t-21 54.5zM778 1266q0 14 4.5 39t13.5 47q17 38 48 55.5t85 17.5q57 0 80 -19.5t23 -57.5q0 -20 -5.5 -46 t-15.5 -45q-20 -37 -50.5 -51t-80.5 -14q-59 0 -80.5 19.5t-21.5 54.5z" />
<glyph unicode="&#x452;" horiz-adv-x="1155" d="M43 0l254 1196h-154l35 162h154l26 131h211l-26 -131h264l-35 -162h-266l-62 -293q97 90 183 133t176 43q142 0 205 -79t63 -240q0 -62 -7 -130.5t-19.5 -139t-30.5 -140t-39 -133.5q-56 -170 -122 -281.5t-142 -180t-163 -100.5t-186 -44v170q68 17 124 46t104 81.5 t89 135t79 206.5q20 64 36.5 131t28.5 131t18.5 121.5t6.5 103.5q0 76 -30 111t-93 35q-59 0 -141 -42t-176 -120l-154 -721h-211z" />
<glyph unicode="&#x453;" horiz-adv-x="993" d="M37 246q0 21 3.5 47t12.5 54.5t23.5 57t36.5 54.5q31 34 71 59.5t89 45.5t106.5 36t122.5 31q73 16 114.5 32t67.5 39q17 14 28 41.5t11 53.5q0 51 -42.5 77.5t-115.5 26.5q-44 0 -78.5 -9.5t-62.5 -25.5t-50.5 -37t-41.5 -43l-129 121q68 85 161 128.5t211 43.5 q99 0 168 -20.5t112.5 -57t63 -88t19.5 -112.5q0 -13 -2 -32.5t-7.5 -42.5t-15 -47t-24.5 -46q-26 -40 -64 -70t-86 -53t-105.5 -41t-123.5 -33q-78 -18 -126 -35t-79 -39q-28 -18 -41.5 -47.5t-13.5 -58.5q0 -32 14 -53t38 -33.5t56 -17.5t68 -5q78 0 139 30t117 93 l131 -127q-31 -38 -71 -69.5t-90.5 -55t-110 -36.5t-129.5 -13q-83 0 -152 14.5t-118.5 47t-77 85.5t-27.5 130zM501 1208l242 361h284l-344 -361h-182z" />
<glyph unicode="&#x454;" horiz-adv-x="1024" d="M78 377q0 63 13 139.5t42 154.5t75 151.5t111 130.5t150.5 91.5t194.5 34.5q139 0 227.5 -47t136.5 -141l-182 -109q-26 56 -72 82.5t-125 26.5q-60 0 -108.5 -23t-87 -61t-66.5 -89t-47 -106h485l-37 -163h-485q-2 -20 -3 -40t-1 -38q0 -49 9.5 -89t32 -68t60.5 -43 t95 -15q74 0 133.5 32t113.5 91l144 -123q-72 -85 -176 -136t-238 -51q-106 0 -181 27.5t-122.5 80t-69.5 128t-22 172.5z" />
<glyph unicode="&#x455;" horiz-adv-x="987" d="M6 154l182 108q31 -60 84.5 -87.5t135.5 -27.5q49 0 92 8.5t74.5 26.5t50 44.5t18.5 62.5q0 23 -6 42t-27 36.5t-60.5 35t-105.5 37.5q-85 25 -141.5 54t-90 63.5t-47 77t-13.5 96.5q0 71 28 134t82.5 110.5t135.5 75.5t186 28q144 0 233 -47t141 -135l-180 -111 q-10 22 -27.5 42.5t-43.5 36.5t-62 26t-82 10q-48 0 -85 -11.5t-62 -30.5t-38 -43.5t-13 -49.5q0 -22 6 -41.5t24 -36.5t50 -32.5t83 -30.5q94 -26 157.5 -55t102 -65t54.5 -82t16 -106q0 -73 -30 -136.5t-88.5 -110.5t-145 -74t-199.5 -27q-87 0 -151.5 14t-111 38.5 t-77 58.5t-49.5 74z" />
<glyph unicode="&#x456;" horiz-adv-x="520" d="M43 0l221 1049h211l-221 -1049h-211zM295 1288q0 28 7.5 56t25 49.5t46.5 35t72 13.5q59 0 84 -22.5t25 -59.5q0 -28 -7.5 -55t-25 -48.5t-46 -35t-70.5 -13.5q-65 0 -88 21.5t-23 58.5z" />
<glyph unicode="&#x457;" horiz-adv-x="520" d="M43 0l221 1049h211l-221 -1049h-211zM91 1266q0 14 4.5 39t14.5 47q15 38 46 55.5t85 17.5q57 0 80.5 -19.5t23.5 -57.5q0 -20 -5.5 -46t-16.5 -45q-19 -37 -49.5 -51t-81.5 -14q-59 0 -80 19.5t-21 54.5zM497 1266q0 14 4.5 39t13.5 47q17 38 48 55.5t85 17.5 q57 0 80 -19.5t23 -57.5q0 -20 -5.5 -46t-15.5 -45q-20 -37 -50.5 -51t-80.5 -14q-59 0 -80.5 19.5t-21.5 54.5z" />
<glyph unicode="&#x458;" horiz-adv-x="539" d="M-336 -365l86 183q32 -14 67 -21.5t77 -7.5q38 0 64 13t44.5 40t31 68t23.5 96l222 1043h213l-232 -1094q-19 -91 -50.5 -157t-79.5 -109t-114.5 -63.5t-156.5 -20.5q-18 0 -42 2t-50 5.5t-53 9t-50 13.5zM315 1290q0 28 8 55t26 48.5t47 35t71 13.5q59 0 83.5 -23 t24.5 -61q0 -29 -8 -56t-25.5 -48t-46 -33.5t-69.5 -12.5q-32 0 -53.5 5.5t-34.5 16t-18 26t-5 34.5z" />
<glyph unicode="&#x459;" horiz-adv-x="1649" d="M-96 4l71 168q16 -3 32 -4.5t26 -1.5q49 0 94 36t87.5 118.5t83 215t81.5 326.5l39 187h667l-79 -383h180q187 0 280 -63.5t93 -209.5q0 -101 -40.5 -175t-108.5 -122.5t-157.5 -72t-187.5 -23.5h-408l185 883h-256l-23 -105q-46 -210 -97 -360.5t-114.5 -247 t-143.5 -142.5t-185 -46q-15 0 -32 2t-33.5 5t-30.5 7t-23 8zM899 162h166q51 0 100 10.5t87.5 35t61.5 66.5t23 105q0 64 -44.5 93.5t-151.5 29.5h-170z" />
<glyph unicode="&#x45a;" horiz-adv-x="1669" d="M37 0l221 1049h209l-86 -404h446l86 404h209l-86 -404h170q94 0 164.5 -14.5t117.5 -46t70 -82t23 -121.5q0 -98 -40 -170t-108 -119t-157 -69.5t-186 -22.5h-398l101 483h-447l-100 -483h-209zM934 162h156q51 0 99.5 10t86.5 33.5t61 63t23 98.5q0 61 -44.5 88.5 t-152.5 27.5h-162z" />
<glyph unicode="&#x45b;" horiz-adv-x="1165" d="M43 0l254 1196h-154l35 162h154l26 131h211l-26 -131h264l-35 -162h-266l-62 -293q42 37 87 69t92.5 56t97 37.5t100.5 13.5q69 0 116.5 -19.5t76 -52.5t41 -77.5t12.5 -95.5q0 -42 -7 -93t-18 -102l-135 -639h-209l127 598q11 56 18 100.5t7 87.5q0 50 -25.5 73.5 t-79.5 23.5q-37 0 -78 -12t-84.5 -33.5t-87.5 -51.5t-87 -65l-154 -721h-211z" />
<glyph unicode="&#x45c;" horiz-adv-x="1047" d="M37 0l221 1049h207l-90 -433h108q42 0 80 17.5t79 65.5t89.5 132.5t110.5 217.5h223q-42 -94 -78.5 -165t-68 -124t-60 -90t-56 -62.5t-55 -42t-57.5 -28.5q59 -25 93.5 -67t53.5 -106.5t27.5 -154t16.5 -209.5h-207q-10 125 -20 210.5t-30.5 138t-55.5 75t-95 22.5h-135 l-94 -446h-207zM536 1208l242 361h284l-344 -361h-182z" />
<glyph unicode="&#x45d;" horiz-adv-x="1165" d="M98 213q0 42 7 93t18 102l135 641h209l-125 -598q-12 -56 -19.5 -101t-7.5 -80q0 -60 24.5 -84t74.5 -24q39 0 81.5 12.5t86.5 34.5t88.5 52.5t87.5 66.5l153 721h211l-221 -1049h-211l31 145q-42 -38 -87 -70t-91.5 -55.5t-94.5 -37t-96 -13.5q-72 0 -120.5 19.5 t-78.5 52.5t-42.5 77.5t-12.5 94.5zM424 1569h259l116 -361h-155z" />
<glyph unicode="&#x45e;" horiz-adv-x="1040" d="M-195 -362l76 178q31 -14 65 -20.5t66 -6.5q33 0 63 11t60 35.5t62 65.5t69 101l45 76l-164 971h211l111 -730l418 730h229l-680 -1125q-51 -86 -98 -146.5t-97.5 -99t-110 -56t-136.5 -17.5q-47 0 -97 9.5t-92 23.5zM335 1454h205q0 -80 25 -114.5t88 -34.5 q57 0 96 35.5t57 113.5h207q-14 -66 -42.5 -116t-74 -83t-109.5 -50t-149 -17q-82 0 -139.5 18t-94 52t-53 83.5t-16.5 112.5z" />
<glyph unicode="&#x45f;" horiz-adv-x="1141" d="M23 0l221 1049h211l-189 -885h455l186 885h213l-221 -1049h-334l-59 -262h-209l57 262h-331z" />
<glyph unicode="&#x490;" horiz-adv-x="1006" d="M51 0l293 1384h584l53 250h227l-98 -463h-580l-247 -1171h-232z" />
<glyph unicode="&#x491;" horiz-adv-x="860" d="M23 0l221 1049h497l64 297h207l-99 -465h-493l-187 -881h-210z" />
<glyph unicode="&#x2000;" horiz-adv-x="952" />
<glyph unicode="&#x2001;" horiz-adv-x="1905" />
<glyph unicode="&#x2002;" horiz-adv-x="952" />
<glyph unicode="&#x2003;" horiz-adv-x="1905" />
<glyph unicode="&#x2004;" horiz-adv-x="635" />
<glyph unicode="&#x2005;" horiz-adv-x="476" />
<glyph unicode="&#x2006;" horiz-adv-x="317" />
<glyph unicode="&#x2007;" horiz-adv-x="317" />
<glyph unicode="&#x2008;" horiz-adv-x="238" />
<glyph unicode="&#x2009;" horiz-adv-x="381" />
<glyph unicode="&#x200a;" horiz-adv-x="105" />
<glyph unicode="&#x2010;" horiz-adv-x="791" d="M68 420l45 213h610l-45 -213h-610z" />
<glyph unicode="&#x2011;" horiz-adv-x="791" d="M68 420l45 213h610l-45 -213h-610z" />
<glyph unicode="&#x2012;" horiz-adv-x="791" d="M68 420l45 213h610l-45 -213h-610z" />
<glyph unicode="&#x2013;" horiz-adv-x="1042" d="M23 438l36 174h963l-37 -174h-962z" />
<glyph unicode="&#x2014;" horiz-adv-x="2046" d="M23 438l36 174h1966l-36 -174h-1966z" />
<glyph unicode="&#x2018;" horiz-adv-x="557" d="M227 936q0 42 15 93.5t43 117.5q34 74 76 135.5t79 101.5h144q-34 -36 -61.5 -78t-48.5 -81t-34.5 -71.5t-17.5 -49.5q49 -2 71.5 -22t22.5 -60q0 -12 -2 -26.5t-5 -29.5t-7.5 -29.5t-9.5 -25.5q-19 -37 -51 -57t-95 -20t-91 26t-28 76z" />
<glyph unicode="&#x2019;" horiz-adv-x="557" d="M211 862q34 36 61.5 78t48.5 81t34 71.5t18 50.5q-48 2 -71 21t-23 61q0 11 2 25.5t5.5 29.5t8.5 28.5t10 24.5q9 18 21.5 33t29.5 25.5t39.5 16t53.5 5.5q65 0 91.5 -26.5t26.5 -75.5q0 -42 -14 -94t-43 -117q-32 -76 -74 -138t-80 -100h-145z" />
<glyph unicode="&#x201a;" horiz-adv-x="557" d="M-20 -293q34 36 61.5 78t48 81t33.5 71.5t18 50.5q-49 2 -71.5 21t-22.5 61q0 11 2 25.5t5 29.5t7.5 28.5t10.5 24.5q18 37 50 58.5t95 21.5t91 -26.5t28 -75.5q0 -42 -15 -95t-42 -116q-15 -35 -34.5 -69t-40 -65t-41.5 -57.5t-40 -46.5h-143z" />
<glyph unicode="&#x201c;" horiz-adv-x="985" d="M227 936q0 42 15 93.5t43 117.5q34 74 76 135.5t79 101.5h144q-34 -36 -61.5 -78t-48.5 -81t-34.5 -71.5t-17.5 -49.5q49 -2 71.5 -22t22.5 -60q0 -12 -2 -26.5t-5 -29.5t-7.5 -29.5t-9.5 -25.5q-19 -37 -51 -57t-95 -20t-91 26t-28 76zM655 936q0 42 15 93.5t43 117.5 q34 74 76 135.5t79 101.5h144q-34 -36 -61.5 -78t-48.5 -81t-34.5 -71.5t-17.5 -49.5q49 -2 71.5 -22t22.5 -60q0 -12 -2 -26.5t-5 -29.5t-7.5 -29.5t-9.5 -25.5q-19 -37 -51 -57t-95 -20t-91 26t-28 76z" />
<glyph unicode="&#x201d;" horiz-adv-x="985" d="M211 862q34 36 61.5 78t48.5 81.5t34 72t18 49.5q-94 3 -94 82q0 11 2 26t5.5 30t8.5 29t10 25q19 37 50.5 57.5t93.5 20.5q65 0 91.5 -26.5t26.5 -75.5q0 -42 -14 -93.5t-43 -117.5q-32 -75 -74 -136.5t-80 -101.5h-145zM639 862q34 36 61.5 78t48.5 81.5t34 72t18 49.5 q-50 2 -72 21.5t-22 60.5q0 11 2 26t5 30t7.5 29t9.5 25q19 37 51 57.5t95 20.5t90.5 -26.5t27.5 -75.5q0 -42 -14.5 -93.5t-42.5 -117.5q-34 -75 -76.5 -136.5t-79.5 -101.5h-143z" />
<glyph unicode="&#x201e;" horiz-adv-x="985" d="M-20 -293q34 36 61.5 78t48 81t33.5 71.5t18 50.5q-49 2 -71.5 21t-22.5 61q0 11 2 25.5t5 29.5t7.5 28.5t10.5 24.5q18 37 50 58.5t95 21.5t91 -26.5t28 -75.5q0 -41 -15 -93.5t-42 -117.5q-35 -76 -77 -138t-79 -100h-143zM406 -293q34 36 61.5 78t48 81t33.5 71.5 t18 50.5q-48 2 -71 21t-23 61q0 11 2 25.5t6 29.5t8.5 28.5t10.5 24.5q9 18 21 33t29 25.5t39.5 16t53.5 5.5q65 0 92 -26.5t27 -75.5q0 -42 -15 -95.5t-42 -115.5q-32 -76 -74.5 -138t-79.5 -100h-145z" />
<glyph unicode="&#x2026;" horiz-adv-x="2048" d="M119 70q0 24 6.5 51.5t17.5 52.5q19 43 54.5 63.5t95.5 20.5q63 0 91 -21.5t28 -66.5q0 -26 -6.5 -54.5t-20.5 -56.5q-22 -40 -58 -56.5t-91 -16.5q-65 0 -91 21.5t-26 62.5zM801 70q0 24 6.5 51.5t17.5 52.5q19 43 54.5 63.5t95.5 20.5q63 0 91 -21.5t28 -66.5 q0 -26 -6.5 -54.5t-20.5 -56.5q-22 -40 -58 -56.5t-91 -16.5q-65 0 -91 21.5t-26 62.5zM1485 70q0 24 5.5 51.5t16.5 52.5q19 43 54.5 63.5t95.5 20.5q63 0 91 -21.5t28 -66.5q0 -26 -6 -54.5t-21 -56.5q-22 -40 -58 -56.5t-92 -16.5q-63 0 -88.5 21.5t-25.5 62.5z" />
<glyph unicode="&#x202f;" horiz-adv-x="381" />
<glyph unicode="&#x2039;" horiz-adv-x="782" d="M63 524l496 471h250l-502 -481l297 -461h-239z" />
<glyph unicode="&#x203a;" horiz-adv-x="782" d="M-27 53l502 482l-297 460h238l301 -471l-496 -471h-248z" />
<glyph unicode="&#x205f;" horiz-adv-x="476" />
<glyph unicode="&#x20ac;" horiz-adv-x="1159" d="M23 487l69 148h60q5 26 10.5 56.5t13.5 58.5h-96l67 147h70q22 65 51.5 128.5t68 120.5t86.5 105.5t107.5 84t130.5 55.5t156 20q88 0 154 -18.5t115.5 -52.5t85.5 -81.5t63 -105.5l-188 -115q-20 45 -42 79t-52 56t-69 33t-93 11q-65 0 -117 -21.5t-94 -63t-75.5 -101 t-60.5 -134.5h492l-70 -147h-467q-8 -28 -14.5 -57.5t-11.5 -57.5h446l-67 -148h-398q-2 -18 -2 -33v-30q0 -130 54 -194t159 -64q61 0 108 12t87.5 35.5t77 58.5t75.5 80l152 -129q-45 -53 -93.5 -98.5t-108.5 -79.5t-134.5 -53t-169.5 -19q-115 0 -196.5 30.5t-133 88.5 t-75 142t-23.5 190v30.5t2 32.5h-110z" />
<glyph unicode="&#x2122;" horiz-adv-x="1616" d="M170 1233l31 151h598l-31 -151h-215l-121 -563h-166l119 563h-215zM801 670l151 714h181l90 -323l231 323h188l-151 -714h-160l92 436l-192 -266h-96l-78 266l-94 -436h-162z" />
<glyph unicode="&#x25fc;" horiz-adv-x="1050" d="M0 0v1050h1050v-1050h-1050z" />
</font>
</defs>
</svg>
